<?xml version="1.0" encoding="UTF-8"?><svg id="Layer_1" xmlns="http://www.w3.org/2000/svg" viewBox="0 0 512 136.66"><defs><style>.cls-1{fill:#f16c20;}.cls-2{fill:#4d4d4d;}</style></defs><g id="ESG_RGB"><g id="Group_178"><path id="Path_53" class="cls-1" d="M82.97,133.13h-25.29c-3.83-.12-6.84-3.31-6.74-7.13V57.11c-.1-3.83,2.92-7.01,6.74-7.13h25.29c3.83,.12,6.84,3.31,6.74,7.13V126c.1,3.83-2.92,7.01-6.74,7.13"/><path id="Path_54" class="cls-1" d="M131.88,133.13h-23.43c-4.38-.18-7.8-3.84-7.67-8.21V11.55c-.13-4.38,3.29-8.05,7.67-8.21h23.43c4.38,.18,7.8,3.84,7.67,8.21V124.9c.13,4.38-3.29,8.05-7.67,8.21"/><path id="Path_55" class="cls-1" d="M34.08,133.13H6.93c-3.3-.1-5.9-2.85-5.82-6.15v-28.6c-.08-3.3,2.52-6.05,5.82-6.15h27.15c3.3,.1,5.9,2.85,5.82,6.15v28.6c.08,3.3-2.52,6.05-5.82,6.15"/></g><g id="Group_184"><g id="Group_179"><path id="Path_56" class="cls-2" d="M189.66,24.03h-15.06v11.28h17.6v5.1h-23.98V3.73h23.79v5.16h-17.42v10.13h15.06v5.01Z"/><path id="Path_57" class="cls-2" d="M201.97,13.15l.17,3.15c1.93-2.39,4.86-3.75,7.93-3.66,5.68,0,8.57,3.25,8.67,9.74v18.01h-6.12V22.75c.12-1.38-.29-2.75-1.13-3.84-.99-.92-2.32-1.37-3.66-1.25-2.34-.08-4.51,1.24-5.51,3.35v19.39h-6.11V13.15h5.77Z"/><path id="Path_58" class="cls-2" d="M232.2,6.53v6.63h4.82v4.53h-4.82v15.21c-.08,.81,.15,1.61,.62,2.27,.6,.53,1.41,.79,2.21,.69,.72,0,1.44-.09,2.14-.25v4.73c-1.31,.37-2.67,.56-4.03,.57-4.7,0-7.05-2.6-7.05-7.79v-15.44h-4.48v-4.53h4.48V6.51h6.12l-.02,.02Z"/><path id="Path_59" class="cls-2" d="M252.54,40.9c-3.51,.15-6.93-1.18-9.42-3.66-2.48-2.63-3.78-6.16-3.61-9.77v-.76c-.04-2.52,.49-5.02,1.57-7.3,.97-2.05,2.5-3.79,4.42-5.01,1.9-1.19,4.1-1.81,6.34-1.79,3.26-.19,6.43,1.12,8.6,3.56,2.19,2.88,3.26,6.44,3.03,10.05v2.46h-17.8c.07,2,.88,3.9,2.27,5.35,1.31,1.32,3.11,2.03,4.97,1.98,2.7,.06,5.26-1.21,6.84-3.4l3.31,3.15c-1.09,1.63-2.6,2.94-4.37,3.79-1.91,.92-4.01,1.38-6.14,1.35h0Zm-.73-23.36c-1.55-.06-3.05,.59-4.06,1.77-1.13,1.41-1.82,3.11-1.98,4.91h11.67v-.46c0-1.69-.58-3.33-1.63-4.65-1.03-1.08-2.48-1.65-3.97-1.57h-.02Z"/><path id="Path_60" class="cls-2" d="M282.28,18.73c-.82-.14-1.66-.2-2.5-.2-2.38-.24-4.65,1.05-5.67,3.22v18.65h-6.12V13.15h5.85l.15,3.05c1.24-2.23,3.6-3.6,6.15-3.56,.74-.02,1.48,.1,2.18,.35l-.03,5.75-.02-.02Z"/><path id="Path_61" class="cls-2" d="M309.82,27.05c.19,3.58-.82,7.13-2.87,10.08-3.43,4.31-9.71,5.02-14.02,1.59-.3-.24-.59-.5-.87-.78v12.93h-6.12V13.15h5.65l.25,2.76c1.8-2.18,4.51-3.39,7.33-3.27,3.06-.13,5.99,1.26,7.82,3.71,2.05,3.04,3.05,6.66,2.83,10.32v.37h-.02Zm-6.1-.52c.12-2.27-.45-4.53-1.62-6.48-1.02-1.56-2.79-2.47-4.65-2.39-2.26-.13-4.37,1.09-5.38,3.12v12.07c1.01,2.06,3.16,3.3,5.44,3.17,1.83,.06,3.56-.83,4.57-2.36,1.25-2.17,1.83-4.66,1.65-7.15v.02Z"/><path id="Path_62" class="cls-2" d="M328.38,18.73c-.82-.14-1.66-.2-2.5-.2-2.38-.24-4.65,1.05-5.67,3.22v18.65h-6.12V13.15h5.85l.15,3.05c1.24-2.23,3.6-3.6,6.15-3.56,.74-.02,1.48,.1,2.18,.35l-.03,5.75-.02-.02Z"/><path id="Path_63" class="cls-2" d="M331.85,6.07c-.03-.87,.3-1.71,.89-2.34,1.48-1.24,3.64-1.24,5.12,0,.61,.63,.94,1.47,.91,2.34,.03,.86-.3,1.7-.91,2.31-.69,.64-1.61,.97-2.55,.93-.94,.06-1.86-.28-2.55-.93-.61-.61-.94-1.45-.92-2.31Zm6.52,34.34h-6.12V13.15h6.12v27.26Z"/><path id="Path_64" class="cls-2" d="M359.23,33c.04-1.02-.48-1.97-1.35-2.5-1.39-.75-2.9-1.26-4.47-1.52-1.8-.34-3.55-.9-5.21-1.67-2.71-.99-4.53-3.54-4.59-6.42,0-2.33,1.1-4.52,2.97-5.9,2.17-1.64,4.84-2.47,7.55-2.36,2.83-.13,5.62,.72,7.89,2.41,1.95,1.49,3.07,3.82,3.02,6.27h-6.12c.02-1.13-.46-2.2-1.31-2.93-.97-.81-2.21-1.22-3.47-1.16-1.17-.06-2.32,.27-3.29,.93-.81,.57-1.29,1.5-1.26,2.5-.03,.89,.42,1.73,1.18,2.19,1.5,.77,3.12,1.3,4.79,1.57,1.96,.38,3.86,1.01,5.65,1.89,1.23,.6,2.28,1.51,3.05,2.63,.69,1.12,1.03,2.41,.99,3.72,.04,2.37-1.1,4.6-3.05,5.95-2.35,1.61-5.15,2.4-7.99,2.27-2.05,.04-4.09-.38-5.97-1.22-1.63-.72-3.04-1.87-4.08-3.32-.95-1.33-1.46-2.92-1.47-4.55h5.95c0,1.3,.61,2.53,1.63,3.34,1.17,.83,2.58,1.24,4.01,1.16,1.3,.1,2.59-.23,3.68-.93,.8-.54,1.28-1.45,1.26-2.41v.07Z"/><path id="Path_65" class="cls-2" d="M381.77,40.9c-3.52,.14-6.94-1.18-9.44-3.66-2.48-2.63-3.79-6.16-3.61-9.77v-.76c-.04-2.52,.49-5.02,1.57-7.3,.97-2.05,2.5-3.79,4.42-5.01,1.9-1.2,4.11-1.82,6.36-1.79,3.26-.19,6.43,1.12,8.6,3.56,2.19,2.88,3.26,6.44,3.03,10.05v2.46h-17.8c.08,2,.89,3.9,2.27,5.35,1.31,1.32,3.11,2.03,4.97,1.98,2.7,.06,5.26-1.21,6.84-3.4l3.31,3.15c-1.09,1.63-2.6,2.94-4.37,3.79-1.91,.92-4.01,1.38-6.14,1.35h0Zm-.73-23.36c-1.55-.06-3.05,.59-4.06,1.77-1.13,1.41-1.82,3.11-1.98,4.91h11.67v-.46c0-1.69-.58-3.33-1.63-4.65-1.03-1.08-2.48-1.65-3.97-1.57h-.02Z"/></g><g id="Group_182"><g id="Group_180"><path id="Path_66" class="cls-2" d="M188.06,80.96c.08-1.44-.56-2.83-1.7-3.72-1.89-1.21-3.96-2.11-6.14-2.65-2.47-.69-4.83-1.68-7.05-2.97-3.05-1.61-4.97-4.77-5.01-8.21-.04-2.87,1.3-5.59,3.61-7.3,2.71-2.01,6.03-3.02,9.4-2.86,2.35-.04,4.69,.44,6.83,1.42,1.92,.86,3.55,2.26,4.71,4.01,1.14,1.71,1.74,3.73,1.72,5.78h-6.36c.09-1.69-.57-3.34-1.8-4.5-1.46-1.17-3.3-1.74-5.16-1.62-1.72-.11-3.43,.36-4.86,1.33-1.14,.89-1.78,2.28-1.72,3.72,0,1.36,.72,2.63,1.87,3.35,1.9,1.19,3.98,2.07,6.15,2.61,2.41,.66,4.72,1.63,6.88,2.9,1.56,.91,2.87,2.19,3.81,3.72,.83,1.5,1.25,3.2,1.22,4.92,.09,2.86-1.22,5.59-3.51,7.3-2.79,1.94-6.15,2.9-9.54,2.71-2.51,.03-5.01-.47-7.32-1.47-2.07-.86-3.86-2.26-5.19-4.06-1.25-1.77-1.9-3.89-1.86-6.05h6.37c-.1,1.85,.66,3.64,2.07,4.84,1.71,1.25,3.8,1.86,5.92,1.72,1.77,.12,3.54-.35,5.01-1.35,1.09-.85,1.71-2.17,1.67-3.56l-.03-.03Z"/><path id="Path_67" class="cls-2" d="M207.82,56.52v6.63h4.82v4.53h-4.82v15.21c-.08,.81,.15,1.61,.62,2.27,.6,.53,1.41,.79,2.21,.69,.72,0,1.44-.09,2.14-.25v4.73c-1.31,.37-2.67,.56-4.03,.57-4.7,0-7.05-2.6-7.05-7.79v-15.44h-4.48v-4.53h4.48v-6.63h6.12v.02Z"/><path id="Path_68" class="cls-2" d="M231,68.74c-.82-.14-1.66-.2-2.5-.2-2.38-.24-4.65,1.05-5.67,3.22v18.65h-6.12v-27.26h5.85l.16,3.05c1.24-2.23,3.6-3.6,6.15-3.56,.74-.02,1.47,.1,2.16,.35v5.75h-.04Z"/><path id="Path_69" class="cls-2" d="M250.12,90.4c-.36-.81-.59-1.67-.71-2.55-3.74,3.78-9.74,4.09-13.84,.71-1.68-1.45-2.64-3.58-2.6-5.8-.13-2.64,1.09-5.16,3.24-6.69,2.77-1.72,6-2.53,9.26-2.33h3.76v-1.79c.23-2.34-1.48-4.43-3.82-4.67-.32-.03-.64-.03-.96,.01-1.23-.05-2.43,.32-3.42,1.05-.85,.62-1.35,1.61-1.33,2.66h-6.12c0-1.53,.53-3.01,1.48-4.2,1.06-1.35,2.46-2.41,4.05-3.07,1.8-.76,3.74-1.14,5.7-1.11,2.76-.14,5.47,.71,7.65,2.41,1.94,1.7,3.02,4.18,2.92,6.76v12.3c-.08,2.01,.27,4.01,1.03,5.87v.42h-6.27Zm-6.72-4.39c1.19,0,2.36-.29,3.4-.88,1.01-.54,1.85-1.36,2.41-2.36v-5.14h-3.31c-1.78-.12-3.55,.29-5.1,1.18-1.12,.74-1.77,2.01-1.72,3.35-.05,1.06,.38,2.09,1.16,2.82,.88,.73,2,1.1,3.14,1.05v-.02Z"/><path id="Path_70" class="cls-2" d="M268.49,56.52v6.63h4.82v4.53h-4.82v15.21c-.08,.81,.15,1.61,.62,2.27,.61,.53,1.41,.78,2.21,.69,.72,0,1.44-.09,2.14-.25v4.73c-1.31,.37-2.67,.56-4.03,.57-4.7,0-7.05-2.6-7.05-7.79v-15.44h-4.48v-4.53h4.48v-6.63h6.12l-.02,.02Z"/><path id="Path_71" class="cls-2" d="M288.84,90.9c-3.52,.14-6.94-1.18-9.44-3.66-2.48-2.63-3.78-6.15-3.61-9.76v-.74c-.04-2.52,.49-5.02,1.57-7.3,.97-2.05,2.5-3.79,4.42-5.01,1.9-1.2,4.11-1.82,6.36-1.79,3.26-.19,6.43,1.12,8.6,3.56,2.19,2.88,3.26,6.44,3.03,10.05v2.46h-17.8c.08,2,.89,3.9,2.27,5.35,1.31,1.32,3.11,2.03,4.97,1.98,2.7,.06,5.26-1.21,6.84-3.4l3.31,3.15c-1.09,1.63-2.6,2.94-4.37,3.79-1.91,.92-4.01,1.38-6.14,1.35v-.03Zm-.74-23.35c-1.55-.06-3.05,.59-4.06,1.77-1.13,1.41-1.82,3.11-1.98,4.91h11.67v-.46c0-1.69-.58-3.33-1.63-4.65-1.03-1.08-2.48-1.65-3.97-1.57h-.02Z"/><path id="Path_72" class="cls-2" d="M302.99,76.58c-.19-3.62,.87-7.19,2.98-10.13,1.87-2.47,4.83-3.89,7.93-3.79,2.82-.13,5.54,1.08,7.33,3.25l.28-2.75h5.51v26.42c.16,3.17-1.05,6.26-3.34,8.46-2.48,2.17-5.71,3.29-9,3.12-2.02,0-4.01-.43-5.85-1.25-1.72-.68-3.22-1.81-4.35-3.27l2.9-3.68c1.67,2.13,4.24,3.37,6.95,3.35,1.76,.1,3.49-.49,4.82-1.65,1.25-1.3,1.89-3.06,1.77-4.86v-1.84c-1.79,1.98-4.38,3.06-7.05,2.95-3.07,.06-5.98-1.36-7.82-3.81-2.19-3.06-3.26-6.78-3.03-10.54h-.03Zm6.1,.53c-.13,2.27,.46,4.53,1.67,6.46,1.04,1.54,2.8,2.43,4.65,2.36,2.29,.1,4.43-1.14,5.5-3.17v-11.99c-1.05-2.02-3.18-3.23-5.44-3.12-1.88-.07-3.66,.83-4.71,2.39-1.25,2.13-1.83,4.58-1.67,7.05h0Z"/><path id="Path_73" class="cls-2" d="M342.54,81.64l5.54-18.49h6.52l-10.81,31.39c-1.67,4.59-4.48,6.89-8.45,6.89-1-.02-1.99-.17-2.95-.46v-4.75l1.16,.07c1.22,.08,2.44-.22,3.49-.85,.9-.73,1.54-1.72,1.86-2.83l.88-2.34-9.59-27.11h6.59l5.77,18.49h0Z"/><path id="Path_74" class="cls-2" d="M395.55,85.65c-1.43,1.8-3.34,3.16-5.52,3.93-2.57,.93-5.28,1.38-8.01,1.33-2.86,.05-5.68-.67-8.16-2.09-2.38-1.41-4.28-3.49-5.48-5.99-1.34-2.84-2.03-5.95-2.01-9.09v-2.86c-.28-4.66,1.13-9.27,3.97-12.98,2.79-3.18,6.89-4.9,11.11-4.67,3.5-.19,6.95,.89,9.73,3.03,2.51,2.25,4.06,5.37,4.33,8.73h-6.25c-.21-3.88-3.52-6.85-7.4-6.65-.1,0-.19,.01-.29,.02-2.55-.15-5.01,1.02-6.52,3.08-1.67,2.72-2.47,5.88-2.31,9.06v2.82c-.2,3.27,.69,6.51,2.51,9.22,1.64,2.18,4.24,3.41,6.96,3.29,2.52,.25,5.03-.55,6.95-2.21v-7.19h-7.55v-4.84h13.91v14.06l.02-.02Z"/><path id="Path_75" class="cls-2" d="M415.34,68.74c-.82-.14-1.66-.2-2.5-.2-2.38-.24-4.65,1.05-5.67,3.22v18.65h-6.12v-27.26h5.85l.15,3.05c1.24-2.23,3.6-3.6,6.15-3.56,.74-.02,1.48,.1,2.18,.35l-.03,5.75h-.02Z"/><path id="Path_76" class="cls-2" d="M416.55,76.53c-.04-2.5,.5-4.97,1.59-7.21,.97-2.04,2.52-3.76,4.45-4.94,2-1.17,4.28-1.76,6.59-1.72,3.35-.13,6.6,1.16,8.95,3.56,2.37,2.57,3.69,5.93,3.71,9.42v1.43c.06,2.48-.46,4.95-1.52,7.2-.96,2.04-2.5,3.74-4.43,4.91-2.02,1.18-4.32,1.79-6.66,1.74-3.5,.15-6.88-1.26-9.24-3.84-2.41-2.85-3.65-6.51-3.46-10.23v-.3h.02Zm6.12,.52c-.14,2.33,.47,4.63,1.74,6.59,1.11,1.56,2.93,2.45,4.84,2.38,1.91,.07,3.73-.84,4.82-2.41,1.28-2.13,1.88-4.6,1.72-7.08,.12-2.31-.5-4.61-1.77-6.54-1.1-1.56-2.91-2.47-4.82-2.41-1.88-.06-3.67,.83-4.75,2.38-1.33,2.13-1.95,4.62-1.77,7.12v-.02Z"/><path id="Path_77" class="cls-2" d="M462.55,87.74c-1.93,2.17-4.75,3.34-7.65,3.17-2.51,.18-4.97-.77-6.71-2.6-1.65-2.14-2.45-4.81-2.27-7.5v-17.65h6.12v17.59c0,3.46,1.43,5.19,4.3,5.19,2.47,.25,4.85-1.02,6.02-3.2v-19.57h6.12v27.26h-5.77l-.15-2.66-.02-.02Z"/><path id="Path_78" class="cls-2" d="M497.94,77.05c.19,3.58-.82,7.13-2.87,10.08-3.43,4.31-9.71,5.02-14.02,1.59-.3-.24-.59-.5-.87-.78v12.93h-6.12V63.14h5.65l.25,2.76c1.8-2.18,4.51-3.39,7.33-3.27,3.06-.13,5.99,1.26,7.82,3.71,2.05,3.04,3.05,6.66,2.83,10.32v.36l-.02,.03Zm-6.1-.52c.12-2.27-.45-4.53-1.62-6.48-1.02-1.57-2.79-2.48-4.65-2.39-2.26-.13-4.37,1.09-5.38,3.12v12.09c1.01,2.06,3.16,3.3,5.44,3.17,1.83,.06,3.56-.83,4.57-2.36,1.25-2.17,1.83-4.66,1.65-7.15h-.01Z"/></g><g id="Group_181"><path id="Path_79" class="cls-2" d="M500.32,59.72h-1.92v5.35h-.79v-5.35h-1.92v-.64h4.64v.64Z"/><path id="Path_80" class="cls-2" d="M502.52,59.06l1.95,4.89,1.95-4.89h1.03v5.99h-.79v-2.33l.07-2.51-1.98,4.86h-.61l-1.98-4.84,.08,2.51v2.33h-.79v-5.99h1.03l.04-.02Z"/></g></g><g id="Group_183"><path id="Path_81" class="cls-2" d="M181.25,124.45c.08,1.75-.41,3.48-1.4,4.92-.87,1.21-2.29,1.9-3.78,1.86-1.52,.08-2.98-.59-3.91-1.79l-.12,1.55h-2.11v-18.98h2.27v7.08c.92-1.15,2.34-1.79,3.81-1.72,1.5-.06,2.93,.63,3.83,1.84,1,1.48,1.49,3.26,1.38,5.04v.19h.03Zm-2.27-.25c.07-1.27-.25-2.53-.92-3.62-.59-.84-1.57-1.32-2.6-1.26-1.42-.05-2.72,.79-3.25,2.11v5.78c.55,1.31,1.85,2.14,3.27,2.11,1.01,.03,1.97-.44,2.55-1.26,.69-1.15,1.01-2.49,.91-3.83l.04-.03Z"/><path id="Path_82" class="cls-2" d="M188.36,127.63l3.12-10.01h2.44l-5.38,15.43c-.83,2.23-2.16,3.34-3.97,3.34l-.44-.03-.85-.17v-1.86l.62,.05c.64,.04,1.27-.12,1.8-.47,.53-.45,.9-1.05,1.06-1.72l.51-1.37-4.77-13.21h2.5l3.34,10.01,.02,.02Z"/><path id="Path_83" class="cls-2" d="M213.26,114.48h-5.99v16.49h-3.29v-16.49h-5.95v-2.68h15.21v2.68h.02Z"/><path id="Path_84" class="cls-2" d="M217.32,131.24c-1.84,.07-3.63-.62-4.94-1.92-1.3-1.37-1.98-3.21-1.89-5.1v-.39c-.03-1.32,.26-2.62,.83-3.81,.51-1.07,1.31-1.98,2.31-2.61,1-.62,2.15-.94,3.32-.93,1.7-.1,3.36,.59,4.5,1.86,1.15,1.5,1.71,3.37,1.58,5.26v1.3h-9.31c.04,1.05,.46,2.04,1.18,2.8,.69,.69,1.63,1.06,2.6,1.03,1.41,.03,2.74-.63,3.57-1.77l1.72,1.65c-.57,.86-1.36,1.54-2.29,1.98-1,.48-2.1,.72-3.2,.71v-.05Zm-.37-12.21c-.81-.03-1.59,.31-2.12,.93-.59,.73-.94,1.62-1.03,2.55h6.1v-.23c0-.88-.29-1.74-.85-2.43-.54-.57-1.29-.87-2.07-.83h-.03Z"/><path id="Path_85" class="cls-2" d="M231.27,128.68c.72,.02,1.43-.23,1.98-.69,.51-.43,.82-1.05,.85-1.72h3.02c-.04,.89-.32,1.75-.83,2.48-.53,.78-1.25,1.41-2.11,1.82-.89,.45-1.87,.68-2.87,.67-1.79,.09-3.52-.62-4.74-1.94-1.24-1.5-1.86-3.41-1.75-5.35v-.34c-.1-1.89,.52-3.75,1.74-5.21,1.21-1.32,2.95-2.04,4.74-1.95,1.52-.06,3.01,.47,4.15,1.48,1.08,1.01,1.7,2.42,1.7,3.89h-3.02c-.02-.76-.32-1.48-.85-2.02-.52-.53-1.24-.81-1.98-.79-.94-.05-1.84,.38-2.39,1.13-.63,1.03-.92,2.22-.85,3.42v.51c-.08,1.21,.21,2.42,.85,3.46,.56,.76,1.47,1.18,2.41,1.13h-.05Z"/><path id="Path_86" class="cls-2" d="M242.41,118.27c.97-1.18,2.43-1.85,3.97-1.82,3.03,0,4.59,1.74,4.62,5.21v9.32h-3.21v-9.2c.08-.76-.15-1.51-.64-2.09-.52-.44-1.19-.66-1.87-.61-1.21-.04-2.34,.63-2.87,1.72v10.17h-3.2v-20.23h3.2v7.52Z"/><path id="Path_87" class="cls-2" d="M265.46,114.48h-5.99v16.49h-3.31v-16.49h-5.95v-2.68h15.21v2.68h.03Z"/><path id="Path_88" class="cls-2" d="M271.86,130.97c-.19-.42-.31-.87-.37-1.33-.96,1.04-2.32,1.63-3.74,1.6-1.28,.06-2.54-.38-3.51-1.23-.88-.76-1.37-1.87-1.35-3.03-.07-1.38,.57-2.69,1.7-3.49,1.45-.9,3.14-1.32,4.84-1.22h1.95v-.93c.04-.65-.19-1.29-.62-1.77-.51-.47-1.2-.71-1.89-.66-.64-.03-1.27,.16-1.79,.54-.44,.32-.7,.84-.69,1.38h-3.2c0-.8,.28-1.57,.78-2.19,.56-.7,1.28-1.25,2.11-1.6,.94-.39,1.96-.59,2.98-.57,1.44-.08,2.86,.37,4,1.26,1.01,.89,1.58,2.19,1.54,3.54v6.42c-.04,1.05,.14,2.1,.54,3.07v.22h-3.28l.02-.02Zm-3.52-2.31c.62,0,1.24-.15,1.79-.46,.53-.28,.97-.71,1.26-1.23v-2.68h-1.72c-.94-.06-1.87,.15-2.68,.62-.58,.39-.92,1.05-.89,1.75-.03,.55,.2,1.09,.61,1.47,.46,.38,1.04,.57,1.63,.54v-.02Z"/><path id="Path_89" class="cls-2" d="M285.14,119.66c-.43-.07-.86-.1-1.3-.1-1.25-.13-2.45,.55-2.97,1.7v9.74h-3.2v-14.26h3.05l.08,1.6c.65-1.16,1.89-1.88,3.22-1.86,.39-.01,.77,.05,1.13,.18v3h-.02Z"/><path id="Path_90" class="cls-2" d="M286.16,123.75c-.1-1.89,.46-3.76,1.57-5.29,.98-1.29,2.53-2.03,4.15-1.98,1.47-.06,2.89,.56,3.83,1.7l.15-1.43h2.88v13.83c.09,1.66-.55,3.27-1.75,4.42-1.3,1.13-2.99,1.71-4.71,1.62-1.06,0-2.1-.23-3.07-.66-.89-.36-1.67-.95-2.27-1.7l1.52-1.92c.88,1.12,2.22,1.77,3.64,1.75,.92,.06,1.82-.25,2.51-.85,.65-.67,.99-1.59,.93-2.53v-.96c-.94,1.03-2.29,1.59-3.68,1.54-1.6,.03-3.13-.7-4.1-1.98-1.14-1.6-1.7-3.55-1.58-5.51l-.03-.02Zm3.19,.28c-.07,1.19,.24,2.37,.88,3.37,.54,.8,1.46,1.26,2.43,1.23,1.2,.05,2.31-.59,2.87-1.65v-6.28c-.55-1.05-1.67-1.68-2.85-1.62-.98-.03-1.91,.44-2.46,1.25-.66,1.11-.96,2.39-.88,3.68l.02,.02Z"/><path id="Path_91" class="cls-2" d="M307.63,131.24c-1.84,.07-3.63-.62-4.94-1.92-1.3-1.37-1.98-3.21-1.89-5.1v-.39c-.03-1.32,.26-2.62,.83-3.81,.51-1.07,1.31-1.98,2.31-2.61,1-.62,2.15-.94,3.32-.93,1.7-.1,3.36,.59,4.5,1.86,1.15,1.5,1.71,3.37,1.58,5.26v1.3h-9.31c.04,1.05,.46,2.04,1.18,2.8,.69,.69,1.63,1.06,2.6,1.03,1.41,.03,2.74-.63,3.57-1.77l1.72,1.65c-.57,.86-1.36,1.54-2.29,1.98-1,.48-2.1,.72-3.2,.71v-.05Zm-.37-12.21c-.81-.03-1.59,.31-2.12,.93-.59,.73-.94,1.62-1.03,2.55h6.1v-.23c0-.88-.29-1.74-.85-2.43-.54-.57-1.29-.87-2.07-.83h-.03Z"/><path id="Path_92" class="cls-2" d="M319.7,113.27v3.46h2.51v2.38h-2.51v7.96c-.04,.42,.07,.84,.32,1.18,.31,.27,.72,.39,1.13,.35,.38,0,.75-.05,1.11-.14v2.48c-.69,.2-1.39,.3-2.11,.3-2.46,0-3.68-1.35-3.68-4.06v-8.08h-2.34v-2.38h2.34v-3.46h3.22Z"/></g></g></g></svg>