<?xml version="1.0" standalone="no"?>
<!DOCTYPE svg PUBLIC "-//W3C//DTD SVG 1.1//EN" "http://www.w3.org/Graphics/SVG/1.1/DTD/svg11.dtd" >
<svg xmlns="http://www.w3.org/2000/svg">
<metadata>
<json>
<![CDATA[
{
	"fontFamily": "techtarget",
	"description": "Font generated by IcoMoon.",
	"version": "Version 1.0",
	"majorVersion": 0,
	"fontId": "techtarget",
	"psName": "techtarget",
	"subFamily": "Regular",
	"fullName": "techtarget"
}
]]>
</json>
</metadata>
<defs>
<font id="techtarget" horiz-adv-x="1024">
<font-face units-per-em="1024" ascent="960" descent="-64" />
<missing-glyph horiz-adv-x="1024" />
<glyph unicode="&#x20;" horiz-adv-x="512" d="" />
<glyph unicode="&#x30;" glyph-name="uni30" data-tags="uni30" d="M770.836 446.192l-287.346 287.348v-230.328l-230.326 230.328v-574.692l230.326 230.326v-230.326z" />
<glyph unicode="&#x31;" glyph-name="uni31" data-tags="uni31" d="M332 736v-576l180 180 180-180v576h-360z" />
<glyph unicode="&#x32;" glyph-name="uni32" data-tags="uni32" d="M727.428 634.428l-67.328 67.37c-20.92 20.87-62.228 38.010-91.782 38.010h-250.87c-29.582 0-53.77-24.228-53.77-53.75v-465.952c0-29.542 24.188-53.74 53.77-53.74h394.23c29.572 0 53.76 24.198 53.76 53.74v322.57c0 29.604-17.092 70.882-38.010 91.75zM591.514 681.586c1.352-0.492 2.796-1.086 4.24-1.65 11.304-4.71 19.2-10.148 21.678-12.656l75.438-75.418c2.52-2.52 7.946-10.394 12.636-21.728 0.634-1.424 1.178-2.858 1.678-4.22h-115.672v115.672zM715.634 211.804h-402.134v482.55h241.274v-160.82h160.86v-321.73zM371.2 453.11h286.72v-35.86h-286.72v35.86zM371.2 381.42h286.72v-35.86h-286.72v35.86zM371.2 309.74h286.72v-35.83h-286.72v35.83z" />
<glyph unicode="&#x33;" glyph-name="uni33" data-tags="uni33" d="M149.786 170l362.214 557.25 362.21-557.25z" />
<glyph unicode="&#x34;" glyph-name="uni34" data-tags="uni34" d="M239.91 405.976c87.704 0 175.408 0 263.11 0 93.43 0 186.86 0 280.29 0 0.26 0 0.52 0 0.78 0-9.9 23.898-19.798 47.798-29.7 71.698-72.854-66.012-145.708-132.024-218.562-198.036-5.108-4.626-10.214-9.254-15.322-13.88-16.97-15.376-15.584-43.812 0-59.398 16.778-16.778 42.448-15.358 59.398 0 72.854 66.012 145.708 132.024 218.562 198.036 5.108 4.626 10.214 9.256 15.322 13.882 16.368 14.83 16.366 44.566 0 59.396-72.856 66.026-145.708 132.052-218.564 198.080-5.108 4.628-10.212 9.256-15.32 13.884-16.95 15.362-42.622 16.776-59.398 0-15.584-15.586-16.968-44.018 0-59.396 72.856-66.026 145.708-132.052 218.564-198.080 5.108-4.628 10.214-9.256 15.32-13.884 0 19.798 0 39.598 0 59.396-72.854-66.012-145.708-132.024-218.562-198.036-5.108-4.626-10.214-9.254-15.322-13.88-16.97-15.376-15.584-43.812 0-59.398 16.778-16.778 42.448-15.358 59.398 0 72.854 66.012 145.708 132.024 218.562 198.036 5.108 4.626 10.214 9.256 15.322 13.882 27.7 25.098 5.608 71.698-29.7 71.698-87.704 0-175.406 0-263.11 0-93.43 0-186.862 0-280.292 0-0.26 0-0.52 0-0.78 0-22.896 0-42-19.104-42-42s19.108-42 42.004-42v0z" />
<glyph unicode="&#x35;" glyph-name="uni35" data-tags="uni35" d="M874.212 726l-362.214-557.25-362.21 557.25z" />
<glyph unicode="&#x36;" glyph-name="uni36" data-tags="uni36" d="M784.090 490.024c-87.704 0-175.406 0-263.11 0-93.43 0-186.862 0-280.292 0-0.26 0-0.52 0-0.78 0 9.9-23.9 19.798-47.798 29.698-71.7 72.854 66.012 145.708 132.024 218.564 198.036 5.108 4.628 10.214 9.254 15.322 13.882 16.97 15.376 15.584 43.812 0 59.396-16.778 16.778-42.446 15.36-59.396 0-72.854-66.012-145.708-132.022-218.564-198.034-5.108-4.628-10.214-9.254-15.322-13.882-16.37-14.832-16.366-44.566 0-59.398 72.854-66.026 145.708-132.052 218.564-198.078 5.106-4.628 10.214-9.258 15.322-13.886 16.95-15.36 42.622-16.776 59.396 0 15.586 15.586 16.968 44.020 0 59.398-72.854 66.026-145.708 132.052-218.564 198.078-5.106 4.628-10.214 9.258-15.322 13.886 0-19.798 0-39.598 0-59.398 72.854 66.012 145.708 132.024 218.564 198.036 5.108 4.628 10.214 9.254 15.322 13.882 16.97 15.376 15.584 43.812 0 59.396-16.778 16.778-42.446 15.36-59.396 0-72.854-66.012-145.708-132.022-218.564-198.034-5.108-4.628-10.214-9.254-15.322-13.882-27.7-25.098-5.61-71.698 29.698-71.698 87.704 0 175.408 0 263.11 0 93.43 0 186.86 0 280.29 0 0.26 0 0.52 0 0.78 0 22.894 0 42 19.106 42 42s-19.104 42-41.998 42v0z" />
<glyph unicode="&#x37;" glyph-name="uni37" data-tags="uni37" d="M730.49 668.13v-465.94h-376.33c-29.696 0-53.78 24.084-53.78 53.76 0 29.726 24.084 53.77 53.78 53.77h340.448v430.090h-358.39c-39.444 0-71.7-32.246-71.7-71.68v-430.090c0-39.424 32.256-71.67 71.7-71.67h430.070v501.76h-35.798zM372.060 273.86h322.55v-35.82h-322.55v35.82z" />
<glyph unicode="&#x38;" glyph-name="uni38" data-tags="uni38" d="M712.562 739.808h-394.24c-29.594 0-53.8-24.188-53.8-53.74v-465.962c0-29.542 24.206-53.74 53.8-53.74h394.24c29.562 0 53.72 24.198 53.72 53.74v465.962c0 29.552-24.156 53.74-53.72 53.74zM716.482 212.254h-403.896v481.668h403.896v-481.668zM389.95 488.908h250.912v-35.84h-250.912v35.84zM389.95 417.27h250.912v-35.86h-250.912v35.86zM389.95 345.548h250.912v-35.82h-250.912v35.82zM389.95 560.608h250.912v-35.84h-250.912v35.84z" />
<glyph unicode="&#x39;" glyph-name="uni39" data-tags="uni39" d="M224.376 735.624h576.646v-95.546h-576.646zM224.376 494.828h576.646v-95.59h-576.646zM224.376 255.92h576.646v-95.544h-576.646z" />
<glyph unicode="&#x41;" glyph-name="uni41" data-tags="uni41" d="M292 733.986l439.976-285.988-439.976-285.984z" />
<glyph unicode="&#x42;" glyph-name="uni42" data-tags="uni42" d="M648.010 447.912c-68.554-68.568-137.11-137.136-205.666-205.706-31.732-31.738-63.462-63.476-95.194-95.212-19.166-19.17 10.534-48.87 29.7-29.7 68.554 68.568 137.11 137.136 205.666 205.706 31.73 31.738 63.46 63.476 95.194 95.212 19.166 19.17-10.534 48.87-29.7 29.7v0zM347.15 719.136c68.556-68.57 137.11-137.14 205.666-205.708 31.73-31.738 63.462-63.476 95.194-95.214 19.166-19.17 48.864 10.53 29.7 29.7-68.554 68.57-137.112 137.14-205.666 205.708-31.732 31.738-63.462 63.476-95.194 95.214-19.166 19.168-48.864-10.53-29.7-29.7v0z" />
<glyph unicode="&#x43;" glyph-name="uni43" data-tags="uni43" d="M218 312v-146h586v146h-586zM754 214h-146v48h146v-48zM584.842 485.874v243.896h-146.336v-243.896h-73.17l146.338-121.946 146.338 121.946z" />
<glyph unicode="&#x44;" glyph-name="uni44" data-tags="uni44" d="M233.722 521.276h556.566v-140.254h-556.566v140.254z" />
<glyph unicode="&#x45;" glyph-name="uni45" data-tags="uni45" d="M233.722 521.276h203.702v214.834h149.16v-214.834h203.704v-140.254h-203.704v-217.060h-149.16v217.060h-203.702v140.254z" />
<glyph unicode="&#x46;" glyph-name="uni46" data-tags="uni46" d="M602.512 448l271.528 271.528c24.89 24.89 24.89 65.62 0 90.51s-65.622 24.89-90.512 0l-271.528-271.528-271.528 271.528c-24.89 24.89-65.62 24.89-90.51 0s-24.89-65.62 0-90.51l271.528-271.528-271.528-271.528c-24.89-24.89-24.89-65.624 0-90.512s65.62-24.888 90.51 0l271.528 271.528 271.528-271.528c24.89-24.888 65.624-24.888 90.512 0v0c24.89 24.888 24.89 65.622 0 90.512l-271.528 271.528z" />
<glyph unicode="&#x47;" glyph-name="uni47" data-tags="uni47" d="M331.972 523.386h172.032v-35.86h-172.032v35.86zM331.972 593.162h286.72v-35.86h-286.72v35.86zM331.972 662.896h286.72v-35.83h-286.72v35.83zM565.422 242.884h-153.15v137.574h-137.646v344.126h401.408v-368.876l50.176-50.176v411.178c0 29.532-24.188 53.73-53.76 53.73h-394.23c-29.574 0-53.77-24.198-53.77-53.73v-322.57c0-29.624 17.092-70.902 38.020-91.76l67.338-67.36c20.91-20.88 62.208-38.020 91.76-38.020h189.756l-45.906 45.884zM380.714 249.958c-1.208 0.44-2.488 0.962-3.788 1.486-10.076 4.198-17.132 9.062-19.354 11.304l-67.338 67.338c-2.262 2.244-7.118 9.278-11.306 19.404-0.562 1.28-1.056 2.56-1.496 3.778h103.29v-103.312zM799.59 198l-161.404 161.424c-0.676 0.696-1.424 1.26-2.202 1.802-1.208 2.244-3.308 3.942-5.868 4.536l-81.962 18.904-7.62 7.66c-3.534 3.544-9.268 3.544-12.81 0-1.772-1.782-2.642-4.096-2.642-6.4 0-2.324 0.87-4.64 2.642-6.4l7.64-7.64 18.934-81.962c0.584-2.56 2.284-4.658 4.548-5.878 0.512-0.758 1.086-1.516 1.76-2.182l161.414-161.424c6.646-6.656 17.542-6.656 24.188 0l53.38 53.38c6.646 6.636 6.646 17.542 0 24.178zM567.552 312.976l-11.868 51.384 51.364-11.878z" />
<glyph unicode="&#x48;" glyph-name="uni48" data-tags="uni48" d="M512 960c-282.77 0-512-229.23-512-512s229.23-512 512-512 512 229.23 512 512-229.23 512-512 512zM768 613.49l-165.488-165.49 165.488-165.488v-90.512h-90.512l-165.488 165.488-165.49-165.488h-90.51v90.512l165.49 165.488-165.49 165.49v90.51h90.51l165.49-165.49 165.488 165.49h90.512v-90.51z" />
<glyph unicode="&#x49;" glyph-name="uni49" data-tags="uni49" d="M352.174 357.878v-68.434l139.346-75.182 139.346 75.182v68.434l-139.346-75.212zM717.312 441.12l108.514 58.46-334.306 136.868-334.306-136.858 334.306-180.408 181.392 97.976-153.742 59.29c-12.678-6.338-23.644-6.41-27.648-6.41-19.752 0-35.768 13.23-35.768 29.552 0 16.312 16.004 29.542 35.768 29.542s35.768-13.23 35.768-29.542c0-0.174-0.052-0.348-0.052-0.512l190.076-57.958zM673.208 417.188v-101.632c0-9.462 7.66-17.12 17.11-17.12s17.11 7.66 17.11 17.12l9.596 125.276-43.818-23.644z" />
<glyph unicode="&#x4a;" glyph-name="uni4A" data-tags="uni4A" d="M516.548 734.966c-7.578 0-14.326-4.832-16.814-11.918l-58.594-166.758-6.328-17.88-11.818-0.286-25.394-0.462-160.378-3.246c-7.598-0.174-14.234-5.13-16.568-12.348-2.396-7.24 0.194-15.144 6.246-19.702l157.378-118.068-57.17-187.002c-2.222-7.22 0.4-15.062 6.512-19.538 1.516-1.178 3.174-1.956 4.956-2.57 0.572-0.196 1.198-0.196 1.762-0.328 1.238-0.206 2.438-0.522 3.666-0.522 0.032 0 0.072-0.042 0.132-0.042 1.064 0 2.222 0.276 3.286 0.492 0.666 0.154 1.29 0.072 1.884 0.288 1.73 0.492 3.38 1.29 4.904 2.346l162.336 111.8v445.746z" />
<glyph unicode="&#x4b;" glyph-name="uni4B" data-tags="uni4B" d="M812.442 522.076c-2.346 7.22-9.042 12.174-16.64 12.348l-197.6 3.994-6.268 17.878-58.572 166.77c-2.488 7.086-9.256 11.92-16.804 11.92-7.578 0-14.326-4.834-16.814-11.92l-58.604-166.778-6.328-17.878-11.818-0.288-25.394-0.462-160.378-3.246c-7.598-0.174-14.234-5.13-16.568-12.35-2.396-7.24 0.194-15.144 6.246-19.702l157.378-118.066-57.17-187.004c-2.222-7.22 0.4-15.062 6.512-19.538 1.516-1.178 3.174-1.956 4.956-2.57 0.572-0.196 1.198-0.196 1.762-0.328 1.238-0.206 2.438-0.522 3.666-0.522 0.032 0 0.072-0.042 0.132-0.042 1.064 0 2.222 0.276 3.286 0.492 0.666 0.154 1.29 0.072 1.884 0.288 1.73 0.492 3.38 1.29 4.904 2.346l162.336 111.8 162.264-111.79c3.082-2.11 6.636-3.134 10.148-3.134 3.686 0 7.374 1.136 10.528 3.462 6.114 4.486 8.724 12.34 6.514 19.538l-57.212 187.014 157.408 118.068c6.062 4.558 8.562 12.462 6.246 19.702z" />
<glyph unicode="&#x4c;" glyph-name="uni4C" data-tags="uni4C" d="M375.99 447.912c68.554-68.568 137.11-137.136 205.666-205.706 31.732-31.738 63.462-63.476 95.194-95.212 19.166-19.17-10.534-48.87-29.7-29.7-68.554 68.568-137.11 137.136-205.666 205.706-31.73 31.738-63.46 63.476-95.194 95.212-19.166 19.17 10.534 48.87 29.7 29.7v0zM676.85 719.136c-68.556-68.57-137.11-137.14-205.666-205.708-31.73-31.738-63.462-63.476-95.194-95.214-19.166-19.17-48.864 10.53-29.7 29.7 68.554 68.57 137.112 137.14 205.666 205.708 31.732 31.738 63.462 63.476 95.194 95.214 19.166 19.168 48.864-10.53 29.7-29.7v0z" />
<glyph unicode="&#x4d;" glyph-name="uni4D" data-tags="uni4D" d="M296.96 535.040h248.832v-31.744h-248.832v31.744zM296.96 605.696h248.832v-31.744h-248.832v31.744zM223.232 214.528v477.184h401.408v-189.44h48.128v182.272c0 29.696-23.552 53.248-53.248 53.248h-392.192c-29.696 0-53.248-23.552-53.248-53.248v-462.848c0-29.696 23.552-53.248 53.248-53.248h237.568v45.056h-241.664zM296.96 463.36h167.936v-31.744h-167.936v31.744zM296.96 392.704h167.936v-31.744h-167.936v31.744zM846.848 535.040c4.096 0 6.144-1.024 6.144-4.096 0-2.048-1.024-4.096-2.048-5.12-1.024-2.048-6.144-6.144-13.312-11.264-90.112-74.752-210.944-336.896-210.944-336.896-4.096-6.144-18.432-8.192-41.984-8.192-16.384 0-26.624 2.048-30.72 5.12-3.072 3.072-10.24 12.288-20.48 26.624-16.384 23.552-35.84 46.080-57.344 67.584-11.264 10.24-16.384 18.432-16.384 24.576 0 7.168 6.144 15.36 17.408 22.528 12.288 8.192 21.504 11.264 29.696 11.264 10.24 0 19.456-4.096 32.768-15.36 12.288-10.24 27.648-29.696 46.080-59.392 0 0 96.256 207.872 173.056 274.432 1.024-1.024 16.384 14.336 88.064 8.192z" />
<glyph unicode="&#x4e;" glyph-name="uni4E" data-tags="uni4E" d="M637.952 750.080c0 0 0 0 0 0 17.408 0 33.792-11.264 40.96-27.648s3.072-33.792-9.216-46.080l-228.352-229.376 228.352-228.352c12.288-12.288 16.384-30.72 9.216-46.080-7.168-16.384-23.552-27.648-40.96-27.648-11.264 0-21.504 4.096-29.696 13.312l-260.096 258.048c-8.192 8.192-13.312 19.456-13.312 30.72s4.096 22.528 13.312 30.72l259.072 259.072c8.192 9.216 19.456 13.312 30.72 13.312z" />
<glyph unicode="&#x4f;" glyph-name="uni4F" data-tags="uni4F" d="M379.904 144.896c0 0 0 0 0 0-17.408 0-33.792 11.264-40.96 27.648s-3.072 33.792 9.216 46.080l228.352 228.352-228.352 228.352c-12.288 12.288-16.384 30.72-9.216 46.080 7.168 16.384 23.552 27.648 40.96 27.648 11.264 0 21.504-4.096 29.696-13.312l260.096-257.024c8.192-8.192 13.312-19.456 13.312-30.72s-4.096-22.528-13.312-30.72l-259.072-260.096c-8.192-8.192-19.456-12.288-30.72-12.288z" />
<glyph unicode="&#x50;" glyph-name="uni4G" data-tags="uni4G" horiz-adv-x="972" d="M80.967 745.674l123.833-219.088-166.698-271.479h209.563l161.935 271.479-119.070 219.088zM719.181 921.898l-328.633-581.060 209.563-371.498h219.088l-209.563 371.498 328.633 581.060z" />
<glyph unicode="&#x51;" glyph-name="uni4H" data-tags="uni4H" horiz-adv-x="938" d="M825.515 445.744c36.088 45.11 63.154 85.709 81.198 126.308 18.044 49.621 18.044 90.22 0 121.797-18.044 36.088-54.132 54.132-108.264 63.154-45.11 9.022-94.731 4.511-153.374-4.511-18.044 54.132-40.599 99.242-72.176 135.33-31.577 40.599-67.665 58.643-108.264 58.643-36.088 4.511-72.176-18.044-103.753-54.132-27.066-36.088-49.621-81.198-67.665-135.33-58.643 9.022-112.775 13.533-153.374 4.511-54.132-9.022-90.22-27.066-108.264-63.154s-18.044-76.687 0-121.797c13.533-40.599 40.599-85.709 81.198-126.308-36.088-45.11-63.154-85.709-81.198-126.308-18.044-49.621-18.044-90.22 0-121.797 18.044-36.088 54.132-54.132 103.753-63.154 45.11-9.022 94.731-4.511 148.863 4.511 18.044-54.132 40.599-99.242 72.176-135.33 31.577-40.599 67.665-58.643 108.264-58.643s76.687 18.044 108.264 58.643c27.066 36.088 49.621 81.198 72.176 135.33 58.643-13.533 108.264-13.533 148.863-4.511 49.621 9.022 85.709 31.577 108.264 63.154 18.044 36.088 18.044 76.687 0 121.797-13.533 36.088-40.599 81.198-76.687 121.797zM401.48 44.264c-18.044 27.066-36.088 63.154-54.132 108.264 40.599 9.022 76.687 27.066 117.286 40.599 40.599-18.044 76.687-31.577 117.286-40.599-13.533-45.11-31.577-81.198-54.132-108.264-36.088-54.132-81.198-54.132-126.308 0zM532.3 851.736c22.555-27.066 40.599-63.154 54.132-108.264-36.088-9.022-76.687-22.555-117.286-40.599-40.599 13.533-81.198 27.066-117.286 40.599 13.533 45.11 31.577 81.198 54.132 108.264 40.599 54.132 85.709 54.132 126.308 0zM694.696 486.344c18.044-13.533 31.577-27.066 45.11-36.088-9.022-9.022-18.044-18.044-27.066-27.066-4.511-4.511-9.022-9.022-18.044-13.533 0 13.533 0 27.066 0 40.599 0 9.022 0 22.555 0 36.088zM685.674 572.053c-4.511 45.11-13.533 85.709-22.555 121.797 45.11 9.022 85.709 13.533 121.797 9.022s58.643-18.044 67.665-36.088c13.533-18.044 9.022-45.11-4.511-76.687s-36.088-63.154-67.665-99.242c-27.066 31.577-58.643 58.643-94.731 81.198zM469.145 265.304c-27.066 13.533-54.132 27.066-81.198 40.599-31.577 18.044-54.132 36.088-76.687 49.621-4.511 27.066-4.511 58.643-4.511 90.22s0 63.154 4.511 90.22c22.555 18.044 49.621 31.577 76.687 49.621 27.066 13.533 54.132 27.066 81.198 40.599 27.066-13.533 54.132-27.066 76.687-40.599 27.066-18.044 54.132-31.577 76.687-49.621 0-27.066 4.511-58.643 4.511-90.22s0-63.154-4.511-90.22c-22.555-13.533-49.621-31.577-76.687-49.621-22.555-13.533-49.621-27.066-76.687-40.599zM581.921 644.229c-9.022 4.511-22.555 13.533-31.577 18.044 18.044 9.022 36.088 13.533 54.132 18.044 4.511-18.044 9.022-40.599 9.022-58.643-9.022 9.022-22.555 13.533-31.577 22.555zM333.815 680.317c18.044-4.511 36.088-13.533 54.132-18.044-9.022-9.022-22.555-13.533-31.577-18.044-13.533-9.022-22.555-13.533-36.088-22.555 4.511 22.555 9.022 40.599 13.533 58.643zM243.595 409.656c-18.044 13.533-31.577 27.066-45.11 40.599 13.533 13.533 27.066 27.066 45.11 36.088 0-13.533 0-22.555 0-36.088s0-27.066 0-40.599zM270.661 698.361c-9.022-40.599-18.044-81.198-22.555-126.308-36.088-27.066-67.665-54.132-94.731-81.198-31.577 36.088-54.132 72.176-67.665 103.753s-13.533 54.132-4.511 76.687c13.533 18.044 36.088 27.066 72.176 31.577 9.022 0 22.555 0 31.577 0 27.066 4.511 54.132 0 85.709-4.511zM85.709 301.392c13.533 31.577 36.088 63.154 67.665 99.242 27.066-27.066 63.154-54.132 94.731-81.198 4.511-40.599 13.533-81.198 22.555-121.797-45.11-9.022-85.709-13.533-117.286-9.022-36.088 4.511-58.643 13.533-67.665 36.088-13.533 22.555-13.533 45.11 0 76.687zM356.37 251.771c9.022-4.511 22.555-13.533 36.088-18.044-18.044-9.022-36.088-13.533-54.132-18.044-4.511 18.044-9.022 36.088-9.022 58.643 4.511-9.022 13.533-13.533 27.066-22.555zM604.476 215.683c-18.044 4.511-36.088 13.533-54.132 18.044 9.022 4.511 22.555 13.533 36.088 18.044 9.022 4.511 22.555 13.533 31.577 18.044-9.022-18.044-9.022-36.088-13.533-54.132zM663.119 197.639c9.022 40.599 18.044 81.198 22.555 121.797 36.088 27.066 67.665 54.132 94.731 81.198 31.577-36.088 54.132-67.665 67.665-99.242s13.533-58.643 4.511-76.687c-9.022-18.044-36.088-31.577-67.665-36.088-9.022 0-22.555 0-31.577 0-27.066 0-58.643 4.511-90.22 9.022z" />
<glyph unicode="&#x52;" glyph-name="uni4I" data-tags="uni4I" d="M693.248 737.792h-379.904c-32.768 0-59.392-26.624-59.392-59.392v-451.584c0-32.768 26.624-59.392 59.392-59.392h379.904c32.768 0 59.392 26.624 59.392 59.392v451.584c0 32.768-26.624 59.392-59.392 59.392zM702.464 214.528h-398.336v478.208h398.336v-478.208zM506.88 529.92h105.472v-30.72h-105.472v30.72zM506.88 601.6h153.6v-30.72h-153.6v30.72zM496.64 640.512c2.048 0 2.048-1.024 2.048-2.048s0-1.024-1.024-2.048-2.048-2.048-5.12-4.096c-34.816-28.672-80.896-129.024-80.896-129.024-2.048-2.048-7.168-3.072-16.384-3.072-6.144 0-10.24 1.024-11.264 2.048s-4.096 4.096-8.192 10.24c-6.144 9.216-13.312 17.408-21.504 25.6-4.096 4.096-6.144 7.168-6.144 9.216 0 3.072 2.048 6.144 7.168 9.216 4.096 3.072 8.192 4.096 11.264 4.096 4.096 0 7.168-1.024 12.288-6.144 5.12-4.096 11.264-11.264 17.408-22.528 0 0 36.864 79.872 66.56 105.472 1.024 0 7.168 6.144 33.792 3.072zM506.88 305.664h105.472v-30.72h-105.472v30.72zM506.88 377.344h153.6v-30.72h-153.6v30.72zM496.64 416.256c2.048 0 2.048-1.024 2.048-2.048s0-1.024-1.024-2.048-2.048-2.048-5.12-4.096c-34.816-28.672-80.896-129.024-80.896-129.024-2.048-2.048-7.168-3.072-16.384-3.072-6.144 0-10.24 1.024-11.264 2.048s-4.096 4.096-8.192 10.24c-6.144 9.216-13.312 17.408-21.504 25.6-4.096 4.096-6.144 7.168-6.144 9.216 0 3.072 2.048 6.144 7.168 9.216 4.096 3.072 8.192 4.096 11.264 4.096 4.096 0 7.168-1.024 12.288-6.144 5.12-4.096 11.264-11.264 17.408-22.528 0 0 36.864 79.872 66.56 105.472 1.024 0 7.168 6.144 33.792 3.072z" />
<glyph unicode="&#x53;" glyph-name="uni4J" data-tags="uni4J" d="M321.536 737.792c-34.816 0-62.464-28.672-62.464-62.464v-479.232c0-34.816 28.672-62.464 62.464-62.464h358.4v489.472h-344.064c0 0-33.792 0-33.792 39.936 0 34.816 33.792 34.816 33.792 34.816h378.88v-479.232c0 0-2.048-21.504 17.408-21.504 18.432 0 15.36 22.528 15.36 22.528v518.144h-425.984z" />
<glyph unicode="&#x54;" glyph-name="uni4K" data-tags="uni4K" d="M629.76 480.768c1.024 69.632-55.296 126.976-124.928 128s-126.976-55.296-128-124.928c0-27.648 8.192-53.248 22.528-73.728 17.408-29.696 39.936-61.44 38.912-93.184v-2.048c0-2.048 1.024-4.096 4.096-4.096l117.76-1.024c2.048 0 4.096 1.024 4.096 4.096v2.048c0 33.792 24.576 64.512 43.008 94.208 14.336 19.456 22.528 44.032 22.528 70.656zM553.984 246.272h-101.376c-7.168 0-12.288-6.144-12.288-12.288 0-7.168 6.144-12.288 12.288-12.288h101.376c7.168 0 12.288 6.144 12.288 12.288s-6.144 12.288-12.288 12.288zM553.984 290.304h-101.376c-7.168 0-12.288-6.144-12.288-12.288 0-7.168 6.144-12.288 12.288-12.288h101.376c7.168 0 12.288 6.144 12.288 12.288 0 7.168-6.144 12.288-12.288 12.288zM464.896 205.312c-2.048 0-3.072-1.024-1.024-3.072l19.456-19.456c1.024-1.024 5.12-3.072 7.168-3.072h25.6c2.048 0 6.144 1.024 7.168 3.072l19.456 19.456c1.024 1.024 1.024 3.072-1.024 3.072h-76.8zM740.352 495.104h-57.344c-7.168 0-12.288-8.192-12.288-18.432s6.144-18.432 12.288-18.432h57.344c7.168 0 12.288 8.192 12.288 18.432 0 11.264-6.144 18.432-12.288 18.432zM324.608 495.104h-58.368c-7.168 0-12.288-8.192-12.288-18.432s6.144-18.432 12.288-18.432h57.344c7.168 0 12.288 8.192 12.288 18.432 1.024 11.264-5.12 18.432-11.264 18.432zM699.392 610.816l-50.176-28.672c-6.144-4.096-6.144-13.312-2.048-21.504 5.12-9.216 14.336-12.288 19.456-9.216l50.176 28.672c6.144 4.096 6.144 13.312 2.048 21.504-5.12 9.216-14.336 12.288-19.456 9.216zM338.944 402.944l-50.176-28.672c-6.144-4.096-6.144-13.312-2.048-21.504 5.12-9.216 14.336-12.288 19.456-9.216l50.176 28.672c6.144 4.096 6.144 13.312 2.048 21.504-5.12 9.216-13.312 12.288-19.456 9.216zM606.208 690.688l-28.672-50.176c-4.096-6.144 1.024-15.36 9.216-19.456 9.216-5.12 18.432-4.096 21.504 2.048l28.672 50.176c4.096 6.144-1.024 15.36-9.216 19.456-9.216 5.12-18.432 4.096-21.504-2.048zM485.376 714.24v-57.344c0-7.168 8.192-12.288 18.432-12.288s18.432 6.144 18.432 12.288v57.344c0 7.168-8.192 12.288-18.432 12.288-11.264 0-18.432-6.144-18.432-12.288zM369.664 673.28l28.672-50.176c4.096-6.144 13.312-6.144 21.504-2.048 9.216 5.12 12.288 14.336 9.216 19.456l-28.672 50.176c-4.096 6.144-13.312 6.144-21.504 2.048-9.216-5.12-12.288-14.336-9.216-19.456zM289.792 580.096l50.176-28.672c6.144-4.096 15.36 1.024 19.456 9.216 5.12 9.216 4.096 18.432-2.048 21.504l-50.176 28.672c-6.144 4.096-15.36-1.024-19.456-9.216-5.12-9.216-4.096-18.432 2.048-21.504zM649.216 372.224l50.176-28.672c6.144-4.096 15.36 1.024 19.456 9.216 5.12 9.216 4.096 18.432-2.048 21.504l-50.176 28.672c-6.144 4.096-15.36-1.024-19.456-9.216-4.096-9.216-3.072-18.432 2.048-21.504z" />
<glyph unicode="&#x55;" glyph-name="uni4L" data-tags="uni4L" d="M723.968 671.232h-423.936c-20.48 0-37.888-16.384-37.888-37.888v-371.712c0-20.48 16.384-37.888 37.888-37.888h422.912c20.48 0 37.888 17.408 37.888 37.888v371.712c0 21.504-16.384 37.888-36.864 37.888zM648.192 635.392c11.264 0 20.48-9.216 20.48-20.48s-9.216-20.48-20.48-20.48c-11.264 0-20.48 9.216-20.48 20.48s9.216 20.48 20.48 20.48zM588.8 635.392c11.264 0 20.48-9.216 20.48-20.48s-9.216-20.48-20.48-20.48c-11.264 0-20.48 9.216-20.48 20.48s9.216 20.48 20.48 20.48zM729.088 253.44h-434.176v304.128h434.176v-304.128zM710.656 593.408c-11.264 0-20.48 9.216-20.48 20.48s9.216 20.48 20.48 20.48 20.48-9.216 20.48-20.48c0-11.264-9.216-20.48-20.48-20.48z" />
<glyph unicode="&#x56;" glyph-name="uni4M" data-tags="uni4M" d="M714.752 632.32l-66.56 66.56c-20.48 20.48-61.44 37.888-91.136 37.888h-249.856c-29.696 0-53.248-23.552-53.248-53.248v-462.848c0-29.696 23.552-53.248 53.248-53.248h391.168c29.696 0 53.248 23.552 53.248 53.248v320.512c1.024 29.696-16.384 70.656-36.864 91.136zM579.584 679.424c1.024 0 3.072-1.024 4.096-2.048 11.264-5.12 19.456-10.24 21.504-12.288l74.752-74.752c2.048-2.048 8.192-10.24 12.288-21.504 1.024-1.024 1.024-3.072 2.048-4.096h-114.688v114.688zM703.488 212.48h-399.36v480.256h239.616v-159.744h159.744v-320.512z" />
<glyph unicode="&#x57;" glyph-name="uni4N" data-tags="uni4N" horiz-adv-x="1159" d="M846.147 340.211c2.695 0 5.389 0 8.084 2.695 5.389 2.695 10.779 8.084 13.474 16.168 21.558 75.453 43.116 150.905 64.674 226.358 2.695 8.084 0 16.168-5.389 21.558-2.695 5.389-10.779 8.084-16.168 8.084-172.463 0-342.232 0-514.695 0-8.084 35.032-18.863 70.063-26.947 102.4-2.695 5.389-5.389 10.779-8.084 13.474s-8.084 5.389-13.474 5.389c-37.726 0-78.147 0-115.874 0-29.642 0-29.642-45.811 0-45.811 32.337 0 64.674 0 99.705 0 8.084-32.337 18.863-64.674 26.947-97.011 0-5.389 0-8.084 2.695-13.474 29.642-107.789 59.284-215.579 88.926-326.063-29.642-10.779-51.2-40.421-51.2-72.758 0-43.116 35.032-78.147 78.147-78.147s78.147 35.032 78.147 78.147c0 10.779-2.695 21.558-8.084 32.337 56.589 0 115.874 0 172.463 0-5.389-10.779-8.084-21.558-8.084-32.337 0-43.116 35.032-78.147 78.147-78.147s78.147 35.032 78.147 78.147c0 43.116-35.032 75.453-75.453 78.147 0 0-2.695 0-2.695 0-99.705 0-196.716 0-296.421 0-5.389 21.558-10.779 40.421-16.168 61.979 121.263 5.389 245.221 13.474 369.179 18.863zM881.179 566.568c-16.168-59.284-35.032-121.263-51.2-180.547-121.263-8.084-242.526-13.474-363.789-21.558-18.863 67.368-37.726 134.737-53.895 202.105 153.6 0 309.895 0 468.884 0zM474.274 146.189c-18.863 0-32.337 13.474-32.337 32.337s13.474 32.337 32.337 32.337c18.863 0 32.337-13.474 32.337-32.337s-13.474-32.337-32.337-32.337zM821.895 178.526c0-18.863-13.474-32.337-32.337-32.337s-32.337 13.474-32.337 32.337c0 18.863 13.474 32.337 32.337 32.337s32.337-16.168 32.337-32.337z" />
<glyph unicode="&#x58;" glyph-name="uni5X" data-tags="uni5X" d="M1024 960h-1024v-747.52h348.16l-345.6-232.96 28.16-43.52 407.040 276.48h48.64v-276.48h51.2v276.48h48.64l407.040-276.48 28.16 43.52-345.6 232.96h348.16v747.52zM655.36 619.52c158.72 53.76 171.52 56.32 199.68 56.32-28.16 0-38.4 5.12-199.68 56.32v71.68l253.44-99.84v-53.76l-253.44-99.84v69.12zM581.12 844.8h43.52l-194.56-371.2h-46.080l197.12 371.2zM112.64 704l253.44 99.84v-71.68c-151.040-51.2-171.52-56.32-199.68-56.32 28.16 0 48.64-5.12 199.68-56.32v-71.68l-253.44 99.84v56.32zM921.6 317.44h-819.2v40.96h819.2v-40.96z" />
<glyph unicode="&#x59;" glyph-name="infographic" data-tags="infographic" d="M789.504 227.84v486.4c0 18.432-15.36 33.792-33.792 33.792h-88.064c-18.432 0-33.792-15.36-33.792-33.792v-486.4h155.648zM390.144 227.84v335.872c0 18.432-15.36 33.792-33.792 33.792h-88.064c-18.432 0-33.792-15.36-33.792-33.792v-334.848h155.648zM589.824 227.84v184.32c0 18.432-15.36 33.792-33.792 33.792h-88.064c-18.432 0-33.792-15.36-33.792-33.792v-184.32h155.648zM839.68 147.968h-655.36c-5.12 0-10.24 4.096-10.24 10.24v17.408c0 5.12 4.096 10.24 10.24 10.24h655.36c5.12 0 10.24-4.096 10.24-10.24v-17.408c0-5.12-4.096-10.24-10.24-10.24z" />
<glyph unicode="&#x5a;" glyph-name="uni5A" data-tags="uni5A" d="M795.488 731.488v-389.796h-283.488v-177.18l-177.182 177.18h-106.306v389.796z" />
<glyph unicode="&#x61;" glyph-name="uni61" data-tags="uni61" d="M836.382 285.808v432.512c0 29.736-24.328 54.064-54.062 54.064h-540.64c-29.736 0-54.064-24.328-54.064-54.064v-432.51h-108.128v-162.192h865.024v162.192h-108.13zM620.128 177.68h-216.256v54.062h216.256v-54.062zM782.32 285.808h-540.64v432.428c0 0 0.058 0.026 0.114 0.084h540.442c0.030-0.056 0.030-0.084 0.086-0.084v-432.428z" />
<glyph unicode="&#x62;" glyph-name="uni62" data-tags="uni62" d="M438.364 601.928c0-47.718 38.706-86.404 86.406-86.404 47.708 0 86.394 38.676 86.394 86.404s-38.676 86.404-86.394 86.404c-47.698 0-86.404-38.688-86.404-86.404zM226.386 601.928c0-47.718 38.696-86.404 86.406-86.404 47.718 0 86.406 38.676 86.406 86.404s-38.676 86.404-86.404 86.404c-47.698 0-86.406-38.688-86.406-86.404zM644.904 409.078v64c0 23.46-19.158 42.66-42.64 42.66h-352.462c-23.46 0-42.68-19.2-42.68-42.66v-213.34c0-23.45 19.22-42.66 42.68-42.66h352.452c23.48 0 42.64 19.19 42.64 42.66v64l170.68-106.66v298.66l-170.67-106.66zM586.876 270.428h-321.7v191.98h321.71v-191.98z" />
<glyph unicode="&#x63;" glyph-name="uni63" data-tags="uni63" d="M861.012 664.478c-25.7-11.382-53.274-19.12-82.242-22.528 29.55 17.722 52.25 45.774 62.95 79.208-27.676-16.428-58.312-28.356-90.93-34.8-26.11 27.88-63.328 45.296-104.5 45.296-79.106 0-143.218-64.144-143.218-143.218 0-11.246 1.226-22.152 3.68-32.652-119.018 6-224.538 63.022-295.162 149.626-12.334-21.13-19.358-45.74-19.358-72.018 0-49.66 25.256-93.49 63.668-119.188-23.45 0.748-45.536 7.226-64.826 17.928-0.034-0.58-0.034-1.194-0.034-1.772 0-69.394 49.384-127.302 114.894-140.424-12.030-3.272-24.676-5.042-37.764-5.042-9.204 0-18.202 0.886-26.926 2.59 18.2-56.916 71.098-98.33 133.776-99.454-49.012-38.448-110.804-61.316-177.88-61.316-11.518 0-22.972 0.648-34.15 2.012 63.394-40.628 138.65-64.382 219.53-64.382 263.43 0 407.43 218.234 407.43 407.43 0 6.236-0.102 12.44-0.376 18.576 27.946 20.14 52.25 45.396 71.438 74.128z" />
<glyph unicode="&#x64;" glyph-name="uni64" data-tags="uni64" d="M647.75 425.29c0-76.746-62.496-139.262-139.302-139.262-76.792 0-139.232 62.516-139.232 139.262 0 76.822 62.44 139.306 139.232 139.306 76.806-0.002 139.302-62.486 139.302-139.306zM959.986 476.448c-1.49-0.112-180.012 185.542-449.868 185.542-269.83 0-449.938-185.542-449.938-185.542l0.224-27.876c0 0 142.52 120.942 364.034 148.33-63.43-31.152-107.274-96.24-107.274-171.612 0-105.46 85.832-191.282 191.282-191.282 105.518 0 191.338 85.82 191.338 191.282 0 75.79-44.344 141.214-108.402 172.198 224.174-26.276 368.604-148.916 368.604-148.916v27.876zM508.448 390.766c-18.306 0-33.268 14.938-33.268 33.34 0 18.39 14.962 33.298 33.268 33.298 18.39 0 33.296-14.908 33.296-33.298 0-18.402-14.906-33.34-33.296-33.34zM508.448 508.546c-46.504 0-84.398-37.894-84.398-84.442 0-46.618 37.894-84.496 84.398-84.496 46.558 0 84.426 37.878 84.426 84.496 0 46.55-37.868 84.442-84.426 84.442zM932.722 604.814h-5.768v-13.012h6.492c5.808 0 8.832 2.228 8.832 7.020 0.002 5.044-4.972 5.992-9.556 5.992zM942.642 574.612l-10.462 14.322h-5.224v-14.322h-3.456v33.408h10.116c8.386 0 12.44-3.052 12.44-9.056 0-5.196-4.554-9.502-9.542-9.752l10.84-14.6h-4.712zM934.478 617.868c-14.628 0-25.678-12.022-25.678-26.498 0-14.532 11.048-26.54 25.678-26.54 14.6 0 25.62 12.008 25.62 26.54 0 14.476-11.074 26.498-25.62 26.498zM934.478 561.668c-15.688 0-29.424 13.054-29.424 29.704 0 16.55 13.736 29.66 29.424 29.66 15.618 0 29.34-13.11 29.34-29.66 0-16.65-13.792-29.704-29.34-29.704z" />
<glyph unicode="&#x65;" glyph-name="uni65" data-tags="uni65" d="M747.278 735.774h-157.612c-28.892 0-69.244-16.71-89.664-37.126l-260.422-260.42c-20.466-20.42-20.466-53.89 0-74.306l188.334-188.382c20.42-20.418 53.886-20.418 74.304 0l260.47 260.424c20.418 20.416 37.082 60.772 37.082 89.664v157.61c0 28.894-23.598 52.536-52.492 52.536zM636.090 493.844c-43.148 0-78.206 34.962-78.206 78.254 0 43.146 35.010 78.106 78.206 78.156 43.196 0 78.204-35.010 78.204-78.156-0.002-43.292-35.008-78.254-78.204-78.254z" />
<glyph unicode="&#x66;" glyph-name="uni66" data-tags="uni66" d="M708.566 340.782c-25.186 0-47.968-10.466-64.192-27.278l-240.71 120.37c0.754 4.578 1.118 9.296 1.118 14.126 0 4.802-0.362 9.548-1.118 14.126l240.71 120.342c16.222-16.78 39.006-27.252 64.192-27.252 49.366 0 89.348 39.984 89.348 89.348 0 49.338-39.982 89.348-89.348 89.348-49.31 0-89.348-40.010-89.348-89.348 0-4.83 0.418-9.548 1.17-14.156l-240.708-120.312c-16.222 16.78-39.006 27.25-64.246 27.25-49.31 0-89.348-40.010-89.348-89.348 0-49.366 40.040-89.348 89.348-89.348 25.24 0 48.024 10.47 64.246 27.252l240.708-120.34c-0.752-4.61-1.17-9.328-1.17-14.13 0-49.366 40.038-89.348 89.348-89.348 49.366 0 89.348 39.982 89.348 89.348 0 49.34-39.982 89.35-89.348 89.35z" />
<glyph unicode="&#x67;" glyph-name="uni67" data-tags="uni67" d="M815.668 214.462l-199.876 199.866c20.958 33.698 33.058 73.458 33.058 116.040 0 121.646-98.614 220.258-220.258 220.258-121.646 0-220.262-98.614-220.262-220.258 0-121.636 98.616-220.24 220.262-220.24 43.668 0 84.396 12.708 118.618 34.648l199.382-199.404 69.076 69.090zM428.592 407.81c-67.596 0-122.554 54.984-122.554 122.558 0 67.572 54.958 122.554 122.554 122.554 67.57 0 122.556-54.982 122.556-122.554 0-67.574-54.984-122.558-122.556-122.558z" />
<glyph unicode="&#x68;" glyph-name="uni68" data-tags="uni68" d="M485.328 300.020v-139.464l-215.594 215.596 215.594 215.57v-142.468c250.798-5.914 240.056 170.55 176.204 286.19 157.586-170.336 124.132-443.28-176.204-435.424z" />
<glyph unicode="&#x69;" glyph-name="uni69" data-tags="uni69" d="M348.732 733.718h326.538v-81.634h-326.538v81.634zM797.718 611.268h-571.436c-22.45 0-40.818-18.368-40.818-40.816v-204.084c0-22.452 18.368-40.818 40.818-40.818h122.45v-163.268h326.538v163.268h122.45c22.45 0 40.816 18.368 40.816 40.818v204.084c0 22.448-18.368 40.816-40.818 40.816zM634.452 203.098h-244.902v204.086h244.902v-204.086zM806.904 550.042c0-16.326-13.234-29.592-29.594-29.592s-29.624 13.266-29.624 29.592 13.266 29.592 29.624 29.592 29.594-13.266 29.594-29.592z" />
<glyph unicode="&#x6a;" glyph-name="uni6A" data-tags="uni6A" d="M333.65 415.97v-248.3c5.858-0.85 11.826-1.3 17.91-1.3h17.93v250.88h-17.93c-6.084 0-12.052-0.452-17.91-1.28zM656.2 417.25v-250.88h17.92c6.082 0 12.082 0.452 17.92 1.3v248.3c-5.836 0.828-11.836 1.28-17.92 1.28h-17.92zM799.56 453.088c0 158.352-128.358 286.72-286.72 286.72-158.342 0-286.72-128.368-286.72-286.72 0-34.396 6.072-67.368 17.172-97.946-10.896-18.566-17.172-40.202-17.172-63.334 0-50.034 29.306-93.236 71.68-113.366v226.734c-11.284-5.346-21.586-12.35-30.73-20.664-3.348 16.384-5.11 33.28-5.11 50.658 0 138.578 112.302 250.86 250.88 250.86 138.538 0 250.88-112.282 250.88-250.86 0-17.376-1.74-34.284-5.1-50.658-9.124 8.316-19.476 15.308-30.74 20.664v-226.744c42.364 20.132 71.68 63.346 71.68 113.366 0 23.132-6.236 44.76-17.202 63.334 11.162 30.586 17.202 63.56 17.202 97.956z" />
<glyph unicode="&#x6b;" glyph-name="uni6B" data-tags="uni6B" d="M201.708 190.136h630.158v512.010h-630.158v-512.010zM792.484 229.54h-551.404v433.244h551.394v-433.244zM634.932 564.296c0-32.614 26.46-59.076 59.086-59.076s59.086 26.46 59.086 59.076c0 32.626-26.44 59.084-59.086 59.084-32.614 0-59.086-26.46-59.086-59.084zM753.080 268.924h-472.608l118.14 315.064 157.552-196.926 78.766 59.086 118.15-177.224z" />
<glyph unicode="&#x6c;" glyph-name="uni6C" data-tags="uni6C" d="M566.854 380.398c0 30.238 54.858 60.416 55.654 141.534 0.574 57.242-44.526 131.97-111.302 131.97-66.808 0-111.876-74.728-111.302-131.97 0.772-81.118 55.624-111.296 55.624-141.534 0-28.618-165.36-52.47-165.36-112.892v-38.156h442.044v38.156c0 60.422-165.358 84.276-165.358 112.892zM876.932 327.488c0 53.042-145.124 73.992-145.124 99.098 0 26.54 48.11 53.050 48.822 124.214 0.518 50.25-39.068 115.85-97.706 115.85-29.252 0-53.756-16.338-70.892-38.984 25.824-26.976 41.398-66.092 40.684-99.376-1.59-76.332-32.046-116.558-50.662-124.458-3.094-5.894-4.96-11.48-4.96-17.078 0-25.19 128.134-46.708 158.754-92.764h121.086v33.498zM147.068 327.488c0 53.042 145.126 73.992 145.126 99.098 0 26.54-48.136 53.050-48.826 124.214-0.518 50.25 39.068 115.85 97.706 115.85 29.222 0 53.758-16.338 70.894-38.984-25.824-26.976-41.398-66.092-40.684-99.376 1.588-76.332 32.046-116.558 50.662-124.458 3.094-5.894 4.96-11.48 4.96-17.078 0-25.19-128.158-46.708-158.754-92.764h-121.084v33.498z" />
<glyph unicode="&#x6d;" glyph-name="uni6D" data-tags="uni6D" d="M794.166 589.082l-141.082-141.084-282.168 282.168-141.084-141.084 282.168-282.166-141.084-141.082h423.25v423.248z" />
<glyph unicode="&#x6e;" glyph-name="uni6E" data-tags="uni6E" d="M227.21 731.664h569.58c10.184 0 20.024-2.156 29.096-6.292l-313.884-366.17-313.854 366.17c9.038 4.136 18.912 6.292 29.062 6.292zM156.014 233.282v427.184c0 1.496 0.070 2.99 0.174 4.45l208.76-243.556-206.5-206.468c-1.566 5.948-2.434 12.1-2.434 18.39zM796.792 162.086h-569.58c-6.258 0-12.446 0.87-18.39 2.468l202.606 202.606 100.574-117.364 100.606 117.364 202.608-202.606c-5.944-1.598-12.098-2.468-18.424-2.468zM867.986 233.282c0-6.29-0.834-12.442-2.434-18.388l-206.464 206.466 208.76 243.556c0.104-1.458 0.138-2.954 0.138-4.45v-427.184z" />
<glyph unicode="&#x6f;" glyph-name="uni6F" data-tags="uni6F" d="M803.98 384.89v-215.904h-125.18v201.452c0 50.582-18.106 85.14-63.41 85.14-34.59 0-55.148-23.268-64.214-45.822-3.304-8.026-4.16-19.244-4.16-30.48v-210.29h-125.178c0 0 1.656 341.138 0 376.494h125.178v-53.348c-0.262-0.398-0.574-0.796-0.832-1.196h0.832v1.196c16.592 25.632 46.328 62.216 112.796 62.216 82.406 0.002 144.168-53.806 144.168-169.458zM290.848 727.014c-42.828 0-70.828-28.1-70.828-65.056 0-36.124 27.2-65.080 69.17-65.080h0.83c43.654 0 70.798 28.898 70.798 65.080-0.796 36.956-27.144 65.056-69.97 65.056zM227.434 168.986h125.116v376.494h-125.116v-376.494z" />
<glyph unicode="&#x70;" glyph-name="uni70" data-tags="uni70" d="M685.56 411.666c41.446 0 18.168-109.006-18.166-109.006 18.166 0 0-90.838-36.336-90.838 0-36.334-36.334-54.502-72.67-54.502-153.458 0-99.466 38.404-254.348 54.502v290.68c136.798 41.048 272.516 143.866 272.516 236.178 30.090 0 109.004-36.334 0-218.010 0 0 90.838 0 109.004 0 54.504 0 36.336-109.004 0-109.004z" />
<glyph unicode="&#x71;" glyph-name="uni71" data-tags="uni71" d="M512 733.54c-157.642 0-285.54-127.824-285.54-285.54 0-157.714 127.898-285.54 285.54-285.54 157.714 0 285.54 127.824 285.54 285.54s-127.826 285.54-285.54 285.54zM582.606 310.54c-14.404-5.672-25.898-10.004-34.48-12.984-8.586-2.98-18.55-4.472-29.898-4.472-17.458 0-31.026 4.254-40.7 12.766-9.678 8.512-14.512 19.316-14.512 32.41 0 5.090 0.362 10.292 1.090 15.606 0.726 5.308 1.89 11.312 3.492 18.004l18.014 63.73c1.61 6.11 2.962 11.894 4.054 17.35s1.636 10.438 1.636 14.95c0 8.146-1.678 13.82-5.030 17.022-3.356 3.2-9.772 4.802-19.256 4.802-4.668 0-9.446-0.73-14.334-2.182-4.89-1.456-9.084-2.836-12.582-4.146l4.808 19.642c11.798 4.8 23.084 8.91 33.864 12.332 10.78 3.416 20.974 5.128 30.59 5.128 17.334 0 30.696-4.184 40.090-12.548 9.39-8.368 14.090-19.244 14.090-32.628 0-2.766-0.328-7.638-0.982-14.624-0.654-6.984-1.856-13.386-3.602-19.206l-17.946-63.508c-1.46-5.098-2.778-10.914-3.942-17.46-1.168-6.546-1.75-11.496-1.75-14.84 0-8.442 1.886-14.188 5.664-17.242s10.314-4.582 19.618-4.582c4.358 0 9.294 0.762 14.814 2.29 5.522 1.528 9.518 2.872 11.99 4.040l-4.8-19.65zM579.442 568.4c-8.37-7.786-18.442-11.676-30.226-11.676s-21.898 3.89-30.334 11.676c-8.44 7.782-12.658 17.204-12.658 28.264 0 11.056 4.218 20.514 12.658 28.372 8.436 7.856 18.548 11.786 30.334 11.786s21.858-3.928 30.226-11.786c8.364-7.858 12.546-17.316 12.546-28.372 0-11.060-4.184-20.482-12.546-28.264z" />
<glyph unicode="&#x72;" glyph-name="uni72" data-tags="uni72" d="M511.744 691.836c-13.262 0-26.236-1.004-38.974-2.888-0.174 0.43-0.328 0.85-0.522 1.28 7.046 5.448 10.712 13.076 9.114 20.676-2.028 9.646-12.288 16.118-25.528 16.118-2.836 0-5.754-0.288-8.592-0.942-16.598-3.462-27.596-15.718-25.016-27.832 1.556-7.312 7.844-12.77 16.568-15.022 0-0.542 0-1.064 0.020-1.596-110.346-31.61-191.098-133.274-191.098-253.808 0-145.828 118.17-264.018 264.018-264.018 145.828 0 264.008 118.19 264.008 264.018s-118.17 264.018-263.998 264.018zM430.798 700.108c-1.504 7.026 6.892 14.95 18.258 17.388 2.262 0.512 4.548 0.726 6.77 0.726 8.868 0 15.79-3.778 16.938-9.206 0.88-4.128-1.72-8.52-6.258-12.022-3.87 2.692-8.836 3.952-13.804 2.878-4.976-1.116-9.012-4.128-11.406-8.192-5.6 1.352-9.606 4.434-10.496 8.428zM653.292 286.188c-24.178-24.178-53.462-41.38-85.412-50.668l-23.336 37.816-5.898-43.96c-8.836-1.158-17.86-1.782-26.9-1.782-53.504 0-103.762 20.838-141.578 58.592-24.188 24.238-41.39 53.484-50.678 85.472l37.816 23.316-43.99 5.938c-1.178 8.836-1.782 17.798-1.782 26.9 0 53.494 20.798 103.74 58.634 141.496 24.206 24.206 53.454 41.472 85.402 50.79l23.326-37.898 5.928 44.042c8.858 1.148 17.818 1.75 26.92 1.75 53.464 0 103.732-20.798 141.548-58.676 24.198-24.106 41.422-53.38 50.698-85.35l-37.836-23.316 44-5.96c1.178-8.806 1.802-17.798 1.802-26.87-0.010-53.504-20.828-103.772-58.664-141.64zM648.654 564.684l-108.35-82.288c-8.038 4.21-16.998 6.626-26.102 6.974l-28.108 58.982-1.658-65.312c-7.3-3.594-13.814-8.654-19.2-14.838l-34.702 12.308 25.376-26.716c-3.472-7.392-5.448-15.412-5.754-23.502l-58.92-28.14 65.32-1.65c0.174-0.44 0.44-0.86 0.614-1.3l-82.34-108.328 108.36 82.35c8.028-4.178 16.968-6.636 26.030-7.024l28.14-58.942 1.7 65.322c7.28 3.616 13.824 8.632 19.14 14.808l34.734-12.278-25.376 26.644c3.502 7.466 5.458 15.432 5.774 23.592l58.91 28.098-65.312 1.678c-0.216 0.44-0.44 0.798-0.634 1.228l82.36 108.33zM511.764 482.5v0zM500.716 479.448c3.716 0.788 7.424 1.116 11.038 1.116 2.304 0 4.558-0.092 6.758-0.358l0.062-0.092-0.020 0.092c4.822-0.666 9.482-1.946 13.824-3.83l-39.3-29.89-29.92-39.374c-1.342 3.102-2.396 6.318-3.092 9.748-6.052 28.498 12.176 56.504 40.654 62.586zM539.3 382.812v0c-4.956-3.062-10.558-5.386-16.62-6.616-3.698-0.84-7.364-1.168-11.018-1.168-2.262 0-4.516 0.144-6.758 0.358l-0.040 0.042c-4.782 0.654-9.44 1.934-13.824 3.83l39.362 29.922 29.9 39.342c1.3-3.092 2.356-6.308 3.062-9.748 4.792-22.476-5.52-44.636-24.064-55.962z" />
<glyph unicode="&#x73;" glyph-name="uni73" data-tags="uni73" d="M886.238 505.207v104.585h-74.684v-104.585h-107.588v-74.684h107.588v-107.588h74.684v107.588h104.585v74.684h-104.585zM342.562 511.215v-119.467c0 0 115.917 0.137 163.157 0.137-25.532-77.414-65.263-119.603-163.157-119.603-98.987 0-176.265 80.282-176.265 179.268s77.278 179.268 176.265 179.268c52.292 0 86.153-18.432 117.146-43.964 24.849 24.849 22.801 28.399 85.879 87.927-53.658 48.742-124.791 78.507-203.025 78.507-166.571 0-301.739-135.031-301.739-301.739 0-166.571 135.031-301.739 301.739-301.739 249.037 0 309.931 216.815 289.724 361.404-58.982 0-289.724 0-289.724 0z" />
<glyph unicode="&#x74;" glyph-name="uni74" data-tags="uni74" d="M674.738 639.954c43.23 0 81.988 23.508 108.492 41.304v-336.606c-26.504-17.802-65.262-41.308-108.492-41.308-43.2 0-81.992 12.828-108.494 30.598-26.502 17.8-65.292 30.6-108.492 30.6-43.226 0-81.99-21.982-108.49-39.78v336.606c26.5 17.802 65.264 39.782 108.49 39.782 43.202 0 81.99-12.826 108.492-30.598 26.502-17.798 65.296-30.598 108.494-30.598zM276.934 737.312c19.946 0 36.164-16.186 36.164-36.164v-542.46h-72.328v542.46c0 19.978 16.188 36.164 36.164 36.164z" />
<glyph unicode="&#x75;" glyph-name="uni75" data-tags="uni75" d="M556.656 164.344h-106.318v283.656h-70.914v97.77l70.914 0.028-0.11 57.59c0 79.75 21.662 128.268 115.568 128.268h78.226v-97.796h-48.89c-36.594 0-38.368-13.63-38.368-39.142l-0.11-48.92h87.918l-10.36-97.782-77.502-0.016-0.054-283.656z" />
<glyph unicode="&#x76;" glyph-name="uni76" data-tags="uni76" d="M792.14 725.536l-2.588 2.59c-59.734 59.756-157.494 59.756-217.252 0l-138.404-138.454c-59.758-59.708-59.758-157.492 0-217.25l2.538-2.538c4.976-4.978 10.256-9.494 15.714-13.608l50.67 50.668c-5.916 3.504-11.5 7.668-16.578 12.744l-2.562 2.54c-32.444 32.442-32.444 85.244 0 117.686l138.428 138.404c32.444 32.444 85.218 32.444 117.662 0l2.562-2.54c32.446-32.442 32.446-85.244 0-117.688l-62.624-62.6c10.866-26.858 16.018-55.494 15.562-84.026l96.872 96.82c59.734 59.758 59.734 157.544 0 217.252zM587.532 526.106c-4.974 4.976-10.23 9.444-15.688 13.608l-50.67-50.67c5.89-3.502 11.5-7.666 16.578-12.744l2.562-2.538c32.444-32.442 32.444-85.246 0-117.688l-138.454-138.428c-32.442-32.444-85.218-32.444-117.636 0l-2.564 2.59c-32.416 32.444-32.416 85.17 0 117.614l62.626 62.65c-10.864 26.86-16.018 55.492-15.588 84.026l-96.82-96.87c-59.758-59.708-59.758-157.466 0-217.226l2.538-2.588c59.758-59.708 157.518-59.708 217.25 0l138.43 138.426c59.73 59.76 59.73 157.542 0 217.25l-2.564 2.588z" />
<glyph unicode="&#x77;" glyph-name="uni77" data-tags="uni77" d="M799.624 735.624v-233.696l-89.866 89.882-107.86-107.86-53.948 53.93 107.86 107.86-89.866 89.882h233.68zM476.046 358.118l-107.86-107.86 89.9-89.882h-233.71v233.694l89.9-89.882 107.86 107.86 53.91-53.93z" />
<glyph unicode="&#x78;" glyph-name="uni78" data-tags="uni78" d="M688.856 760.288h-345.61c-21.106 0-38.4-17.284-38.4-38.41v-537.59c0-21.126 17.296-38.4 38.4-38.4h345.61c21.106 0 38.38 17.274 38.38 38.4v537.6c0.010 21.126-17.274 38.4-38.38 38.4zM516.044 173.63c-16.476 0-29.86 13.384-29.86 29.85 0 16.506 13.384 29.89 29.86 29.89 16.496 0 29.88-13.384 29.88-29.89 0-16.466-13.384-29.85-29.88-29.85zM688.856 261.090h-345.61v422.39h345.61v-422.39z" />
<glyph unicode="&#x79;" glyph-name="uni79" data-tags="uni79" d="M648.512 528.314v-163.928h-189.102v-76.758h175.040l109.402-109.39v109.39h65.636v240.686zM204.512 677.762v-288.708h78.738v-131.23l131.23 131.23h209.97v288.708z" />
<glyph unicode="&#x7a;" glyph-name="uni7A" data-tags="uni7A" d="M228.512 731.488v-389.796h283.488v-177.18l177.182 177.18h106.306v389.796z" />
<glyph unicode="&#xe600;" glyph-name="uniE600" data-tags="uniE600" d="M766.044 682.116c-1.586 1.26-3.778 1.486-5.55 0.532l-501.678-256.964c-1.884-0.952-2.97-2.938-2.806-5.038 0.184-2.090 1.586-3.87 3.594-4.506l167.926-53.462c1.75-0.562 3.676-0.144 5.028 1.096l232.324 209.654-185.508-219.936c-1.106-1.322-1.496-3.154-1.014-4.812 0.512-1.658 1.802-2.99 3.462-3.492l186.348-56.852c0.48-0.164 0.994-0.226 1.496-0.226 0.89 0 1.782 0.226 2.57 0.666 1.24 0.706 2.12 1.924 2.468 3.288l93.164 384.738c0.462 1.996-0.256 4.044-1.822 5.314zM536.35 304.374l-51.508 15.862c-1.556 0.522-3.256 0.216-4.576-0.768-1.332-0.982-2.108-2.54-2.108-4.168v-97.372c0-2.294 1.516-4.332 3.748-4.966 0.462-0.144 0.932-0.196 1.434-0.196 1.72 0 3.39 0.87 4.352 2.386l51.496 81.5c0.87 1.362 1.044 3.062 0.492 4.568s-1.792 2.682-3.328 3.154z" />
<glyph unicode="&#xe601;" glyph-name="uniE601" data-tags="uniE601" d="M540.16 526.336c0 13.598 23.46 27.156 23.818 63.62 0.236 25.754-19.058 59.342-47.606 59.342-28.58 0-47.842-33.586-47.574-59.342 0.298-36.466 23.758-50.034 23.758-63.62 0-12.872-70.728-23.604-70.728-50.77v-17.162h189.050v17.162c0.020 27.178-70.716 37.908-70.716 50.77zM374.344 314.644c0 13.578 23.46 27.156 23.808 63.63 0.236 25.732-19.058 59.35-47.616 59.35s-47.852-33.618-47.606-59.35c0.348-36.476 23.788-50.052 23.788-63.63 0-12.882-70.716-23.602-70.716-50.74v-17.202h189.060v17.202c0 27.136-70.716 37.856-70.716 50.74zM697.284 314.644c0 13.578 23.438 27.156 23.788 63.63 0.266 25.732-19.046 59.35-47.596 59.35-28.57 0-47.852-33.618-47.606-59.35 0.328-36.476 23.788-50.052 23.788-63.63 0-12.882-70.728-23.602-70.728-50.74v-17.202h189.072v17.202c0 27.136-70.716 37.856-70.716 50.74zM520.304 417.148v-64.666z" />
<glyph unicode="&#xe602;" glyph-name="uniE602" data-tags="uniE602" d="M268.606 631.982h101.14v-433.602h-101.14v433.602zM411.71 704h102.502v-512h-102.502v512zM543.11 518.242l89.34 33.676 122.904-326.062-89.338-33.674-122.904 326.060z" />
<glyph unicode="&#xe603;" glyph-name="uniE603" data-tags="uniE603" d="M642.366 532.624h18.104v-51.498l107.53 92.16-107.53 92.13v-61.072h-18.104c-94.524 0-147.866-70.102-194.918-131.952-42.322-55.552-78.828-103.65-137.842-103.65h-53.606v-71.588h53.606c94.514 0 147.836 70.092 194.908 131.88 42.312 55.582 78.858 103.588 137.85 103.588zM394.526 487.476c4.036 5.202 8.1 10.568 12.176 15.924 10.004 13.198 20.612 27.054 32.040 40.888-33.834 31.58-74.618 54.896-129.138 54.896h-53.606v-71.66h53.606c33.966 0.010 60.476-15.924 84.92-40.048zM660.47 363.746h-18.104c-35.994 0-63.662 17.87-89.344 44.432-2.592-3.318-5.15-6.758-7.762-10.148-11.304-14.858-23.408-30.78-36.864-46.51 34.744-33.884 76.83-59.514 133.97-59.514h18.104v-61.43l107.53 92.18-107.53 92.12v-51.128z" />
<glyph unicode="&#xe604;" glyph-name="uniE604" data-tags="uniE604" d="M666.062 545.27c2.55 85.106-64.38 156.13-149.462 158.658-85.074 2.56-156.12-64.358-158.658-149.442-0.992-33.25 8.654-64.338 25.814-90.030 20.398-36.486 46.532-75.356 45.362-114.616l-0.060-2.232c-0.092-2.826 2.15-5.202 4.966-5.294l143.442-4.28c2.816-0.082 5.192 2.16 5.274 4.966l0.062 2.232c1.24 41.534 31.406 78.776 53.986 114.166 17.572 24.218 28.314 53.74 29.276 85.872zM572.672 272.282h-123.014c-8.488 0-15.37-6.892-15.37-15.37 0-8.5 6.892-15.39 15.37-15.39h123.014c8.5 0 15.37 6.892 15.37 15.39 0 8.48-6.88 15.37-15.37 15.37zM572.672 321.404h-123.014c-8.488 0-15.37-6.87-15.37-15.37s6.892-15.37 15.37-15.37h123.014c8.5 0 15.37 6.87 15.37 15.37s-6.88 15.37-15.37 15.37zM465.038 222.75c-2.816 0-3.492-1.628-1.496-3.626l23.5-23.49c1.988-2.006 5.928-3.634 8.746-3.634h30.75c2.816 0 6.758 1.628 8.746 3.626l23.5 23.49c1.996 1.996 1.332 3.626-1.496 3.626h-92.252z" />
<glyph unicode="&#xe605;" glyph-name="uniE605" data-tags="uniE605" d="M347.278 533.546h261.058v-33.414h-261.060v33.414zM347.278 608.154h261.058v-33.404h-261.060v33.404zM270.51 197.438v501.134h420.24v-172.246h50.002v164.076c0 30.73-25.202 55.91-55.982 55.91h-410.194c-30.74 0-55.868-25.18-55.868-55.91v-484.802c0-30.75 25.118-55.91 55.868-55.91h330.598v47.75h-334.664zM347.278 458.916h219.648v-33.392h-219.648v33.394zM761.284 284.14c-3.062-2.52-6.482-4.628-10.188-6.34-1.004-0.492-1.976-0.982-3.030-1.382-5.622-2.172-11.458-3.278-17.438-3.278-8.15 0-16.168 2.12-23.276 5.98-6.534-3.144-13.742-4.792-21.094-4.792-5.754 0-11.326 1.066-16.712 3.042-0.932 0.358-1.894 0.666-2.806 1.096-2.61 1.126-5.038 2.55-7.364 4.106-3.86 2.57-7.27 5.622-10.188 9.082v-131.808c0-4.096 2.478-7.834 6.278-9.4 1.26-0.522 2.58-0.768 3.912-0.768 2.642 0 5.244 1.034 7.178 2.98l43.766 43.694 43.766-43.694c2.908-2.918 7.27-3.788 11.090-2.212 3.788 1.568 6.268 5.304 6.268 9.4v135.752c-2.734-4.302-6.154-8.182-10.158-11.458zM803.092 427.212c-0.666 1.678-1.444 3.268-2.336 4.772-0.288 0.522-0.654 0.942-0.982 1.434-0.634 0.972-1.27 1.924-2.018 2.796-0.43 0.544-0.91 0.994-1.382 1.486-0.706 0.736-1.404 1.496-2.172 2.16-0.532 0.492-1.126 0.88-1.69 1.322-0.768 0.594-1.526 1.188-2.346 1.7-0.626 0.39-1.27 0.736-1.924 1.076-0.818 0.452-1.65 0.89-2.52 1.27-0.686 0.308-1.394 0.544-2.090 0.798-0.87 0.318-1.772 0.614-2.674 0.87-0.716 0.184-1.464 0.348-2.202 0.492-0.91 0.184-1.852 0.338-2.774 0.44-0.748 0.082-1.504 0.134-2.274 0.164-1.342 0.072-2.682 0.132-4.054 0.020 1.628 14.008-5.642 28.15-19.21 34.14-1.516 0.676-3.072 1.178-4.618 1.596-0.328 0.082-0.666 0.174-1.004 0.246-1.504 0.38-3.020 0.634-4.548 0.768-0.246 0.010-0.512 0.010-0.758 0.020-1.332 0.092-2.662 0.092-4.004 0-0.338-0.010-0.696-0.010-1.066-0.040-1.504-0.142-3.010-0.38-4.486-0.726-0.276-0.060-0.552-0.142-0.84-0.214-1.23-0.328-2.468-0.726-3.666-1.208-0.338-0.132-0.716-0.266-1.066-0.42-1.404-0.604-2.764-1.28-4.066-2.068-0.184-0.102-0.308-0.214-0.472-0.308-1.148-0.716-2.274-1.526-3.338-2.386-0.308-0.246-0.634-0.502-0.922-0.788-1.188-1.014-2.324-2.088-3.348-3.256-0.972 1.26-2.068 2.376-3.196 3.482-0.308 0.328-0.654 0.604-0.982 0.902-0.91 0.798-1.874 1.556-2.846 2.252-0.308 0.226-0.626 0.472-0.922 0.676-1.29 0.85-2.62 1.618-3.994 2.262-0.298 0.154-0.594 0.266-0.88 0.38-1.148 0.532-2.314 0.964-3.502 1.332-0.42 0.132-0.87 0.266-1.312 0.39-1.27 0.37-2.592 0.626-3.922 0.82-0.216 0.040-0.44 0.102-0.654 0.132-1.568 0.184-3.164 0.246-4.74 0.204-0.266 0-0.532-0.010-0.778-0.040-1.556-0.060-3.124-0.226-4.68-0.544-0.196-0.040-0.37-0.082-0.562-0.142-1.638-0.358-3.278-0.82-4.894-1.434-13.916-5.366-21.842-19.24-20.798-33.414-1.526 0.184-3.072 0.204-4.588 0.174-0.686-0.020-1.382-0.102-2.058-0.154-0.982-0.082-1.934-0.184-2.898-0.358-0.686-0.112-1.382-0.266-2.048-0.43-0.942-0.214-1.852-0.48-2.764-0.778-0.666-0.204-1.342-0.452-1.986-0.696-0.88-0.348-1.73-0.758-2.6-1.178-0.626-0.308-1.25-0.634-1.842-0.994-0.828-0.502-1.638-1.034-2.438-1.596-0.544-0.39-1.106-0.768-1.638-1.198-0.788-0.634-1.504-1.352-2.244-2.068-0.492-0.44-0.952-0.87-1.394-1.372-0.768-0.84-1.464-1.75-2.13-2.682-0.318-0.462-0.676-0.88-0.994-1.342-0.952-1.444-1.782-2.97-2.52-4.576-5.99-13.588-1.842-28.888 8.764-38.186-11.15-8.736-16.068-23.952-10.692-37.868 0.666-1.7 1.464-3.288 2.336-4.812 0.308-0.502 0.666-0.91 0.982-1.394 0.644-0.982 1.29-1.956 2.028-2.836 0.42-0.522 0.922-0.942 1.394-1.444 0.706-0.748 1.414-1.526 2.182-2.202 0.532-0.472 1.106-0.86 1.69-1.28 0.758-0.604 1.546-1.198 2.366-1.71 0.626-0.39 1.25-0.726 1.914-1.066 0.818-0.48 1.658-0.91 2.54-1.28 0.666-0.298 1.372-0.544 2.058-0.788 0.88-0.318 1.782-0.626 2.682-0.88 0.226-0.062 0.462-0.174 0.686-0.216 0.502-0.124 0.994-0.154 1.496-0.256 0.91-0.196 1.852-0.338 2.784-0.452 0.758-0.082 1.504-0.154 2.274-0.164 0.522-0.042 1.014-0.124 1.504-0.124 0.84 0 1.678 0.042 2.5 0.102-0.512-4.486-0.010-8.95 1.198-13.21 1.946-6.748 5.98-12.81 11.776-17.152 1.924-1.434 3.972-2.754 6.268-3.778 1.516-0.666 3.072-1.158 4.608-1.576 0.328-0.082 0.666-0.184 1.004-0.246 1.516-0.37 3.030-0.634 4.548-0.778 0.256-0.010 0.512-0.010 0.768-0.030 1.322-0.102 2.652-0.072 3.962 0 0.37 0.020 0.726 0.020 1.096 0.062 1.496 0.154 2.99 0.358 4.486 0.696 0.276 0.082 0.562 0.174 0.84 0.226 1.24 0.328 2.438 0.726 3.644 1.178 0.348 0.164 0.716 0.288 1.076 0.462 1.394 0.604 2.764 1.25 4.066 2.048 0.154 0.102 0.308 0.196 0.44 0.298 1.168 0.716 2.294 1.526 3.36 2.386 0.308 0.246 0.626 0.502 0.922 0.788 1.168 1.014 2.324 2.090 3.348 3.268 0.982-1.26 2.048-2.376 3.196-3.492 0.318-0.308 0.654-0.594 0.994-0.88 0.9-0.808 1.864-1.576 2.846-2.284 0.298-0.216 0.614-0.452 0.942-0.644 1.27-0.87 2.6-1.628 3.982-2.284 0.276-0.134 0.584-0.236 0.87-0.37 1.136-0.544 2.304-0.962 3.512-1.342 0.43-0.144 0.87-0.256 1.29-0.4 1.29-0.328 2.6-0.634 3.922-0.808 0.216-0.042 0.44-0.092 0.686-0.134 1.568-0.196 3.154-0.256 4.722-0.216 0.256 0 0.544 0.020 0.788 0.030 1.556 0.082 3.102 0.246 4.658 0.544 0.196 0.052 0.4 0.114 0.584 0.144 1.638 0.358 3.278 0.818 4.884 1.454 4.782 1.864 8.786 4.73 12.022 8.232 6.236 6.758 9.492 15.882 8.776 25.18 1.014-0.114 1.996-0.092 3-0.114 0.512-0.010 1.044-0.062 1.568-0.062 0.716 0.030 1.424 0.102 2.13 0.154 0.952 0.092 1.884 0.196 2.826 0.348 0.716 0.124 1.424 0.266 2.11 0.43 0.91 0.226 1.812 0.472 2.692 0.758 0.154 0.062 0.288 0.102 0.452 0.174 0.532 0.174 1.066 0.37 1.586 0.562 0.86 0.348 1.7 0.758 2.55 1.168 0.634 0.328 1.25 0.654 1.884 1.014 0.828 0.472 1.608 1.004 2.386 1.556 0.572 0.4 1.158 0.798 1.7 1.22 0.758 0.644 1.486 1.362 2.202 2.038 0.492 0.472 0.982 0.89 1.434 1.394 0.748 0.84 1.414 1.75 2.078 2.662 0.348 0.48 0.706 0.89 1.024 1.372 0.942 1.434 1.792 2.948 2.51 4.568 6 13.588 1.864 28.908-8.746 38.196 11.172 8.746 16.096 23.962 10.692 37.888zM739.616 378.318c-0.604-1.342-1.28-2.6-2.018-3.808-0.184-0.308-0.37-0.604-0.572-0.9-0.716-1.086-1.476-2.12-2.294-3.072-0.020-0.052-0.052-0.082-0.072-0.102-0.042-0.072-0.114-0.134-0.164-0.196-0.89-1.054-1.894-1.986-2.898-2.888-0.256-0.236-0.522-0.44-0.788-0.686-0.952-0.778-1.924-1.526-2.948-2.192-0.134-0.082-0.226-0.174-0.358-0.256-1.148-0.716-2.336-1.332-3.534-1.914-0.328-0.154-0.626-0.256-0.952-0.4-1.066-0.48-2.172-0.89-3.288-1.22-0.196-0.082-0.38-0.144-0.562-0.196-1.28-0.37-2.592-0.634-3.922-0.85-0.328-0.052-0.654-0.092-1.004-0.144-1.126-0.144-2.294-0.216-3.452-0.246-0.174 0-0.338-0.052-0.522-0.052-0.072 0-0.164 0-0.226 0-0.604 0.030-1.208 0.082-1.812 0.134-0.462 0.030-0.922 0.030-1.394 0.072-0.626 0.082-1.26 0.196-1.894 0.318-0.44 0.062-0.87 0.114-1.29 0.196-0.706 0.154-1.434 0.38-2.14 0.572-0.328 0.102-0.676 0.174-1.034 0.266-1.054 0.338-2.090 0.726-3.134 1.188-4.568 2.018-8.408 5.006-11.438 8.592-7.69 9.072-10.044 22.048-4.924 33.65 0.584 1.332 1.28 2.6 2.018 3.788 0.206 0.318 0.39 0.626 0.594 0.942 0.716 1.086 1.496 2.15 2.346 3.134 0.062 0.082 0.124 0.144 0.174 0.216 0.9 1.054 1.894 1.976 2.908 2.918 0.246 0.216 0.522 0.44 0.798 0.666 0.942 0.758 1.924 1.504 2.918 2.182 0.144 0.082 0.266 0.184 0.39 0.256 1.126 0.726 2.314 1.352 3.524 1.924 0.308 0.144 0.626 0.276 0.952 0.41 1.066 0.472 2.15 0.88 3.278 1.22 0.206 0.072 0.37 0.144 0.572 0.196 1.28 0.37 2.58 0.634 3.9 0.86 0.338 0.052 0.666 0.092 1.034 0.134 1.106 0.154 2.264 0.216 3.4 0.266 0.184 0 0.358 0.020 0.552 0.020 0.072 0 0.174-0.010 0.246-0.010 0.562 0 1.126-0.062 1.69-0.092 0.502-0.020 1.014-0.020 1.496-0.092 0.584-0.062 1.158-0.174 1.74-0.256 0.492-0.102 0.972-0.134 1.444-0.236 0.654-0.154 1.3-0.328 1.924-0.512 0.41-0.134 0.84-0.206 1.24-0.338 1.054-0.348 2.068-0.716 3.102-1.198 16.2-7.136 23.552-26.092 16.394-42.26zM347.278 384.298h219.648v-33.394h-219.648v33.394z" />
<glyph unicode="&#xe606;" glyph-name="uniE606" data-tags="uniE606" d="M581.734 431.534c2.784 18.75 2.856 38.062 0.010 57.302-18.104-1.382-35.83 9.452-43.14 28.14-7.332 18.728-2.068 39.608 11.684 52.174-10.824 15.77-23.85 29.358-38.348 40.53-11.836-14.532-31.61-20.132-49.306-12.38-17.694 7.782-27.924 26.46-26.604 45.608-17.704 2.97-35.994 3.082-54.212 0 1.31-19.148-8.918-37.826-26.604-45.618-17.694-7.752-37.468-2.15-49.316 12.38-14.92-11.478-27.782-25.212-38.338-40.53 13.752-12.574 19.026-33.444 11.704-52.174-7.352-18.688-25.038-29.522-43.14-28.16-2.784-18.708-2.866-38.042 0-57.304 18.084 1.404 35.79-9.4 43.14-28.13 7.332-18.75 2.048-39.62-11.704-52.152 10.854-15.79 23.858-29.38 38.338-40.54 11.858 14.52 31.63 20.11 49.316 12.35 17.674-7.762 27.924-26.48 26.604-45.6 17.726-3 36.014-3.072 54.212-0.020-1.31 19.128 8.908 37.856 26.604 45.62s37.468 2.15 49.306-12.37c14.93 11.48 27.812 25.18 38.348 40.562-13.752 12.544-19.016 33.424-11.684 52.152 7.312 18.74 25.016 29.552 43.13 28.16zM408.924 362.322c-51.108 0-92.528 43.826-92.528 97.864s41.42 97.842 92.528 97.842c51.086 0 92.518-43.796 92.518-97.842 0-54.036-41.43-97.864-92.518-97.864zM781.446 316.088c4.424 10.456 7.342 21.668 8.562 33.342-10.742 2.202-19.414 11.48-20.9 23.582-1.454 12.082 4.75 23.356 14.602 28.356-3.982 10.976-9.492 21.064-16.27 29.962-9.062-6.462-21.38-6.432-30.496 1.066-9.144 7.456-12.298 20.050-8.664 30.956-9.87 4.668-20.48 7.794-31.528 9.042-2.1-11.346-10.844-20.532-22.272-22.088-11.458-1.556-22.118 5.008-26.85 15.412-10.374-4.188-19.908-10.004-28.324-17.162 6.114-9.606 6.072-22.62-0.994-32.276-7.044-9.668-18.964-12.974-29.276-9.174-4.414-10.434-7.352-21.648-8.55-33.322 10.732-2.202 19.414-11.458 20.88-23.552 1.476-12.104-4.71-23.378-14.582-28.376 3.952-10.966 9.492-21.052 16.26-29.962 9.052 6.462 21.38 6.42 30.504-1.066 9.134-7.456 12.288-20.060 8.664-30.934 9.86-4.7 20.49-7.794 31.52-9.062 2.090 11.326 10.834 20.5 22.292 22.088 11.438 1.536 22.098-4.996 26.818-15.432 10.404 4.198 19.938 10.024 28.356 17.172-6.092 9.596-6.082 22.61 0.962 32.276 7.076 9.656 18.996 12.996 29.286 9.154zM670.638 304.692c-29.726 8.55-47.278 40.95-39.208 72.346 8.068 31.448 38.688 49.98 68.404 41.462 29.716-8.53 47.268-40.918 39.21-72.326-8.068-31.438-38.698-49.992-68.404-41.482z" />
<glyph unicode="&#xe607;" glyph-name="uniE607" data-tags="uniE607" d="M343.47 402.094c10.19 22.212 32.246 57.702 41.226 104.54-5.674-1.936-11.366-4.31-19.016-8.334-7.64-4.036-97.844-52.244-108.626-144.426-16.108-141.116 157.582-123.79 230.164-53.976 30.822 29.818 53.156 61.594 67.85 100.086-64.676-19.374-181.494-43.182-211.598 2.11zM642.366 538.308c-13.732 24.944-21.116 38.482-36.924 67.524-12.728 23.378-22.476 34.938-33.65 39.916-4.588 2.016-9.472 3.082-14.552 3.082-10.486 0-20.448-4.332-30.076-8.488-5.724-2.468-11.644-5.018-17.378-6.514-13.65-3.522-25.108-5.612-35.214-7.454-23.686-4.3-39.332-7.158-49.418-23.542-5.12-8.376-10.712-36.25-18.656-93.194-4.598-32.87-23.572-74.272-32.964-91.576l-2.57-5.764 3.942-3.472c8.396-7.456 22.57-10.148 43.152-10.148v0c31.888 0 79.574 8.9 141.742 26.4l3.338 0.942 1.126 3.328c1.966 5.734 3.666 11.058 5.274 16.086 6.83 21.36 11.786 36.792 27.442 56.31 9.656 11.99 26.174 19.968 42.27 27.116l6.676 2.98-3.564 6.472zM515.226 296.51c28.396 38.912 56.586 97.404 64.686 114.052 9.514 20.152 14.838 44.206 25.98 62.596 16.434 27.136 93.562 69.97 123.392 74.802 18.258 2.97 32.87-11.11 37.6-23.072 8.14-20.46-30.75-34.448-45.814-45.68-28.384-20.776-59.73-38.532-86.732-61.87-27.484-23.612-70.902-85.472-119.112-120.832z" />
<glyph unicode="&#xe608;" glyph-name="uniE608" data-tags="uniE608" d="M525.138 364.668c-2.346-6.902-8.684-11.634-15.944-11.908-0.226-0.010-0.452-0.010-0.676-0.010-6.994 0-13.362 4.158-16.128 10.64l-58.992 137.86-26.624-73.932c-2.324-6.432-8.172-10.948-14.98-11.54-6.82-0.594-13.362 2.836-16.752 8.786l-45.272 79.308h-65.72c24.566-84.696 104.028-207.862 247.952-293.264 139.192 87.808 218.88 184.678 245.822 275.344h-191.548l-41.134-121.282zM768.298 554.948c0 50.914-41.564 114.022-114.76 124.078-79.648 10.948-115.578-32.020-141.538-59.412-25.958 27.382-68.362 74.834-141.526 64.266-80.62-11.644-114.77-78.020-114.77-128.932 0-5.060 0.338-10.456 1.024-16.178 0.88 0.134 1.792 0.226 2.724 0.226h80.508c6.286 0 12.104-3.38 15.226-8.836l31.468-55.132 28.836 80.078c2.438 6.788 8.786 11.396 15.986 11.602 7.178 0.216 13.804-4.014 16.64-10.66l58.49-136.694 30.566 90.092c2.418 7.136 9.102 11.93 16.62 11.93h211.938c1.7 11.346 2.57 22.548 2.57 33.576z" />
<glyph unicode="&#xe609;" glyph-name="uniE609" data-tags="uniE609" d="M274.606 590.296c-11.406-7.74-18.606-20.942-18.606-35.644v-238.88c0-0.052 0-0.134 0.020-0.184l-0.020-0.102c0-23.46 18.72-42.496 41.79-42.496h388.26c1.434 0 2.836 0.052 4.22 0.236 0.266 0.020 0.512 0.082 0.768 0.092 1.126 0.114 2.274 0.276 3.4 0.522 0.164 0.052 0.338 0.102 0.502 0.154 1.178 0.226 2.346 0.552 3.512 0.91 0.052 0.020 0.114 0.052 0.164 0.072 14.376 4.628 25.354 16.916 28.366 32.144 0.010 0.052 0.010 0.124 0.010 0.174 0.266 1.22 0.43 2.428 0.562 3.706 0.030 0.37 0.062 0.696 0.082 1.066 0.052 0.594 0.154 1.126 0.164 1.7l39.936 238.11 0.236 2.324c0.462 11.314-3.452 21.984-11.008 30.084-7.876 8.366-19.068 13.198-30.75 13.198h-264.98zM682.014 325.458l-0.216-2.888c0-3.278-2.702-5.908-6.042-5.908h-365.292c-2.99 0-5.488 2.14-5.96 4.946l37.468 223.396c0.492 3.052 1.444 8.754 11.95 8.754h359.62c1.934 0 3.778-0.716 4.914-1.936 0.676-0.716 1.054-1.516 1.126-2.52l-37.572-223.846zM438.682 598.876c0 13.344-10.548 24.136-23.562 24.136h-117.432c-13.004 0-23.562-10.802-23.562-24.136v-13.956c0-13.342 10.558-24.136 23.562-24.136h117.432c13.014 0 23.562 10.804 23.562 24.136v13.956z" />
<glyph unicode="&#xe60a;" glyph-name="uniE60A" data-tags="uniE60A" d="M586.752 467.18c3.502-74.69-31.928-108.146-71.014-108.146h-68.832c-13.486 0-58.89-1.198-72.632-1.424-1.25-0.042-2.324-0.604-3.052-1.618-0.768-1.044-0.974-2.264-0.716-3.544l8.5-39.802c0.37-1.72-0.214-3.42-1.596-4.394-1.362-1.014-3.112-0.982-4.496 0.010l-115.322 85.556c-1.074 0.798-1.67 2.006-1.67 3.39 0 1.394 0.594 2.592 1.67 3.4 38.544 28.416 76.892 57.016 115.252 85.586 1.392 1.004 3.132 1.024 4.496 0.032 1.372-1.004 1.956-2.714 1.586-4.414l-8.468-39.792c-0.256-1.29-0.050-2.52 0.706-3.524 0.758-1.044 1.834-1.596 3.072-1.608 13.466-0.472 59.156-1.3 72.674-1.3h53.914c13.2 0.358 13.2 23.92 13.2 31.58zM571.076 612.168h-41.36c-8.644 0-15.688-7.434-15.688-16.516v-44.892h72.724v44.892c0 9.082-7.054 16.516-15.678 16.516z" />
<glyph unicode="&#xe60b;" glyph-name="uniE60B" data-tags="uniE60B" d="M509.676 614.258c-51.14-18.832-75.224 11.694-91.618 52.828-3.81 9.574-22.794 18.586-8.060 30.146 13.344 10.466 31.538 8.244 44.298-3 11.51-10.148 17.664-12.646 30.71-0.828 16.21 14.684 37.12 13.354 53.842-1.22 9.678-8.458 15.616-12.042 25.098-0.512 3.962 4.802 11.274 8.018 17.614 9.482 11.12 2.56 24.452 4.21 32.092-5.078 7.822-9.514-4.996-16.988-8.212-25.528-1.034-2.744-3.778-4.824-4.936-7.568-17.12-40.172-42.884-64.892-90.83-48.722zM668.62 484.802c-10.27 13.804-22.436 25.814-34.682 37.704-5.796 6.574-11.836 12.616-18.126 17.9-4.25 4.342-8.448 8.756-12.422 13.384-4.188 4.854-8.5 8.868-13.036 12.166-6.942 7.68-14.624 13.436-22.958 13.436h-110.716c-7.802 0-15.062-5.070-21.658-12.022-25.692-16.004-45.774-45.004-67.84-68.106-22.282-23.356-35.912-51.836-43.306-83.322-5.796-24.678-6.502-48.64-2.99-72.058 4.874-99.666 88.576-151.88 191.15-151.88 101.868 0 185.108 51.518 191.008 149.872 7.466 49.664-4.198 102.308-34.428 142.93zM523.008 318.404v-24.658h-23.694v22.958c-16.19 0.716-31.908 5.078-41.094 10.404l7.25 28.284c10.158-5.56 24.412-10.63 40.13-10.63 13.774 0 23.204 5.316 23.204 14.98 0 9.174-7.73 14.98-25.62 21.034-25.856 8.704-43.51 20.788-43.51 44.226 0 21.278 14.99 37.95 40.858 43.028v22.958h23.686v-21.268c16.188-0.726 27.076-4.106 35.042-7.976l-7.004-27.31c-6.298 2.662-17.408 8.222-34.806 8.222-15.718 0-20.786-6.758-20.786-13.538 0-7.966 8.468-13.046 29.010-20.778 28.764-10.168 40.376-23.45 40.376-45.198-0.010-21.544-15.246-39.916-43.038-44.74z" />
<glyph unicode="&#xe60c;" glyph-name="uniE60C" data-tags="uniE60C" d="M661.188 563.168h-2.52c-22.744 45.814-68.608 77.148-121.486 77.148-41.33 0-78.378-19.158-103.466-49.388-9 3.788-18.852 5.846-29.164 5.846-42.506 0-77.106-35.4-78.13-79.474-40.018-7.434-70.42-43.918-70.42-87.788 0-49.254 38.286-89.18 85.514-89.18h58.686v131.89c0 29.266 22.814 53.074 50.852 53.074h169.39v-30.934h29.654v-154.030h25.774v1.106c6.676 0.972 13.302 2.51 19.948 4.874 41.994 15.022 72.182 56.556 72.182 105.452 0 61.522-47.832 111.402-106.812 111.402zM451.040 255.682h177.838v216.556h-14.808v-201.082h-155.616c-12.278 0-22.23 10.384-22.23 23.204 0 12.842 9.952 23.194 22.23 23.194h140.78v185.64h-148.192c-16.302 0-29.654-13.926-29.654-30.956v-185.6c0-17.028 13.354-30.956 29.654-30.956zM465.858 302.080h133.366v-15.452h-133.366v15.452z" />
<glyph unicode="&#xe60d;" glyph-name="uniE60D" data-tags="uniE60D" d="M445.716 562.852c-5.192-15.986-19.426-27.658-36.75-29.144-0.572-7.158-0.932-14.388-0.932-21.698 0-74.108 29.604-141.332 77.486-190.792 7.3 5.826 16.426 9.452 26.48 9.452 15.022 0 28.17-7.794 35.768-19.528 33.25 18.226 61.932 43.622 84.050 74.158-8.078 7.752-13.148 18.626-13.148 30.72 0 10.548 3.982 20.070 10.312 27.534-45.578 57.978-109.67 100.658-183.264 119.296zM438.13 603.002c29.92 10.108 61.912 15.668 95.222 15.668 51.302 0 99.584-12.964 141.764-35.768-6.268 31.488-18.514 60.784-35.338 86.886-37.592 21.718-81.212 34.212-127.774 34.212-8.918 0-17.704-0.44-26.4-1.342-24.954-25.754-45.014-56.27-58.44-90.174 4.198-2.51 7.864-5.714 10.966-9.482zM458.894 584.326c76.576-21.034 142.972-66.55 190.362-127.602 3.84 1.146 7.844 1.956 12.092 1.956 2.428 0 4.762-0.328 7.086-0.726 7.476 23.828 11.582 49.12 11.582 75.378 0 6.482-0.318 12.892-0.798 19.25-42.302 26.624-92.302 42.086-145.87 42.086-25.806 0.010-50.78-3.644-74.454-10.342zM368.498 597.206c7.118 12.34 20.1 20.746 35.256 21.32 10.732 28.006 25.528 54.016 43.716 77.27-60.806-15.79-112.824-53.38-147.23-103.956 20.306 3.552 41.144 5.51 62.464 5.51 1.936-0.010 3.86-0.112 5.796-0.142zM767.508 463.044c-16.856 27.524-38.35 51.948-63.528 71.956 0-0.552 0.030-1.076 0.030-1.668 0-30.074-4.884-59.012-13.764-86.118 8.408-7.794 13.742-18.842 13.742-31.202 0-11.51-4.598-21.914-12-29.582 12.75-27.698 22.076-57.302 27.546-88.218 30.454 42.148 48.466 93.838 48.466 149.8 0 5.048-0.184 10.056-0.492 15.032zM758.958 515.41c-13.076 48.014-39.73 90.428-75.644 122.798 9.268-22.57 15.668-46.624 18.668-71.752 21.146-14.51 40.254-31.692 56.976-51.046zM512 245.35c-13.344 0-25.098 6.236-32.922 15.812-16.988-3.256-34.448-5.15-52.388-5.15-37.234 0-72.642 7.526-105.052 20.87 46.858-52.082 114.79-84.88 190.362-84.88 41.072 0 79.862 9.738 114.248 26.932-32.48 6.216-63.088 17.644-90.912 33.414-6.706-4.394-14.716-6.994-23.336-6.994zM661.34 373.34c-2.642 0-5.192 0.338-7.7 0.778-25.508-36.28-59.464-66.13-99.042-86.744-0.082-5.806-1.312-11.326-3.492-16.342 32.572-17.848 69.162-29.164 108-32.462 14.47 10.148 27.842 21.822 39.876 34.702-4.076 35.706-13.702 69.754-28.028 101.244-3.102-0.716-6.288-1.178-9.616-1.178zM469.76 283.78c-0.132 1.404-0.42 2.774-0.42 4.23 0 4.558 0.902 8.868 2.222 13.004-54.016 54.026-87.542 128.572-87.542 211.004 0 8.95 0.562 17.736 1.362 26.48-3.358 1.802-6.492 3.932-9.226 6.524-55.378-38.83-95.692-97.546-110.766-165.704 5.764-20.768 14.1-40.468 24.628-58.768 39.464-25.508 86.272-40.54 136.664-40.54 14.694 0 29.060 1.342 43.080 3.768zM364.062 565.7c-0.614 2.478-0.964 5.018-1.126 7.648-0.092 0-0.164 0-0.246 0-27.27 0-53.668-3.542-79.062-9.708-17.622-34.754-27.628-74.004-27.628-115.63 0-5.438 0.236-10.824 0.562-16.188 22.048 54.508 59.75 100.894 107.5 133.878z" />
<glyph unicode="&#xe60e;" glyph-name="uniE60E" data-tags="uniE60E" d="M695.346 629.402c-40.212 0-72.776-33.638-72.776-75.080 0-21.228 8.562-40.398 22.302-54.036l-105.788-113.746c-8.15 4.158-17.326 6.502-27.014 6.502-7.056 0-13.784-1.24-20.070-3.472l-33.762 88.822c14.908 9.902 24.8 27.168 24.8 46.808 0 30.71-24.136 55.624-53.904 55.624s-53.904-24.914-53.904-55.624c0-9.646 2.406-18.76 6.616-26.666l-73.954-83.078c-4.096 1.526-8.488 2.386-13.106 2.386-21.484 0-38.892-17.98-38.892-40.13 0-22.212 17.408-40.182 38.892-40.182 21.494 0 38.932 17.972 38.932 40.182 0 9.912-3.502 18.954-9.288 25.97l70.164 78.838c9.358-8.060 21.402-12.924 34.55-12.924 3.040 0 6.042 0.276 8.97 0.768l34.93-91.832c-13.608-11.572-22.262-29.112-22.262-48.722 0-34.898 27.442-63.222 61.296-63.222 33.802 0 61.246 28.324 61.246 63.222 0 16.804-6.36 32.082-16.754 43.376l106.056 114.062c9.842-5.12 20.932-8.018 32.716-8.018 40.182 0 72.764 33.618 72.764 75.090 0.010 41.442-32.572 75.080-72.764 75.080z" />
<glyph unicode="&#xe60f;" glyph-name="uniE60F" data-tags="uniE60F" d="M654.038 503.694c3.982 17.51 0.43 46.602-20.818 67.512-21.024 21.126-50.022 24.514-67.43 20.346-18.034-3.932-26.368-11.848-26.418-11.53-0.042-0.256 10.476 4.138 27.156 3.994 16.456 0.050 39.126-6.502 56.044-23.562 17.172-16.886 23.838-39.516 23.942-56.044 0.256-16.732-4.086-27.3-3.768-27.3-0.38 0.082 7.476 8.5 11.294 26.584zM457.144 357.664c74.568-57.61 181.996-53.37 251.842 14.060 76.81 74.148 79.084 196.628 5.028 273.572-74.034 76.924-196.322 79.176-273.152 5.028-69.836-67.41-78.020-174.788-23.306-251.534zM680.11 401.716c-60.274-58.164-156.232-56.412-214.302 3.962-58.102 60.384-56.33 156.476 3.932 214.65 60.262 58.184 156.232 56.412 214.312-3.952 58.102-60.366 56.31-156.466-3.942-214.66zM314.336 191.488v0l-58.44 58.552 156.314 156.548 58.44-58.522z" />
<glyph unicode="&#xe610;" glyph-name="uniE610" data-tags="uniE610" d="M718.602 296.704c0.87 1.22 1.74 2.376 2.6 3.626 3.256 4.568 6.4 9.278 9.36 14.12 0.86 1.414 1.638 2.816 2.468 4.208 2.202 3.778 4.322 7.608 6.34 11.47 0.88 1.71 1.792 3.38 2.642 5.078 2.172 4.444 4.178 8.97 6.124 13.568 1.106 2.632 2.16 5.284 3.196 7.916 0.87 2.356 1.71 4.73 2.51 7.116 2.068 5.846 3.89 11.736 5.5 17.716 0.246 0.952 0.544 1.894 0.778 2.846 17.428 67.564 7.496 141.884-33.966 204.75l-1.852 2.098c-12.422 18.474-27.208 35.318-44.092 50.064l-1.29 1.444c-0.962 0.798-1.976 1.546-2.948 2.356-0.042 0.030-0.114 0.102-0.164 0.144-4.762 3.962-9.668 7.7-14.674 11.264-1.014 0.718-2.038 1.444-3.052 2.15-4.292 2.97-8.664 5.786-13.096 8.478-1.24 0.748-2.448 1.546-3.698 2.274-5.212 3.030-10.506 5.898-15.892 8.53-2.264 1.126-4.618 2.098-6.942 3.164-3.144 1.414-6.298 2.826-9.504 4.136-3.062 1.25-6.174 2.418-9.318 3.574-2.418 0.86-4.864 1.678-7.302 2.468-9.38 3.092-18.924 5.826-28.804 7.884l-2.018 0.132c-21.39 4.158-43.284 5.6-65.178 4.228-0.338-0.020-0.676-0.010-1.014-0.030l-3.104 0.204c-61.656-4.71-118.642-31.846-161.32-74.526-0.010-0.020-0.032-0.042-0.032-0.042-0.020-0.020-0.032-0.040-0.040-0.040-10.128-10.138-19.436-21.116-27.802-32.922-0.562-0.788-1.074-1.586-1.628-2.376-3.298-4.762-6.44-9.666-9.412-14.684-0.686-1.138-1.392-2.284-2.048-3.442-0.626-1.066-1.31-2.12-1.926-3.204-0.42-0.728-0.798-1.506-1.208-2.254-1.218-2.244-2.242-4.618-3.41-6.892-1.362-2.766-2.774-5.5-4.056-8.294-0.42-0.9-0.912-1.75-1.3-2.674-0.778-1.74-1.556-3.502-2.314-5.252-1.31-3.194-2.62-6.37-3.84-9.616-1.596-4.322-3.072-8.714-4.464-13.158-0.562-1.812-1.064-3.666-1.586-5.51-0.226-0.798-0.452-1.568-0.676-2.346-0.032-0.142-0.072-0.266-0.112-0.42-1.024-3.728-1.956-7.526-2.836-11.336-0.37-1.618-0.85-3.164-1.188-4.772-3.122-15.134-4.73-30.228-5.13-45.158-0.010-0.594-0.020-1.198-0.040-1.782-0.032-1.618-0.122-3.246-0.122-4.864 0-3.010 0.276-5.96 0.38-8.95 0.092-3.206 0.174-6.4 0.41-9.606 0.276-4.054 0.768-8.048 1.25-12.072 0.37-3.256 0.748-6.524 1.27-9.778 0.604-3.84 1.392-7.608 2.162-11.398 0.706-3.4 1.404-6.82 2.242-10.23 0.892-3.584 1.946-7.086 2.99-10.62 1.044-3.492 2.058-6.994 3.246-10.476 1.188-3.452 2.56-6.82 3.88-10.188 1.332-3.43 2.632-6.83 4.138-10.198 1.568-3.552 3.338-7.014 5.070-10.466 1.536-3.062 2.99-6.154 4.658-9.174 2.108-3.85 4.424-7.548 6.728-11.284 1.352-2.172 2.5-4.414 3.922-6.564 0.358-0.544 0.748-1.066 1.116-1.586 0.544-0.828 1.126-1.608 1.69-2.418 3.534-5.15 7.218-10.168 11.070-14.99 0.266-0.298 0.502-0.654 0.768-1.034 4.228-5.192 8.664-10.188 13.22-15.012 0.502-0.544 1.014-1.076 1.526-1.608 4.71-4.904 9.574-9.596 14.592-14.048 0.236-0.216 0.462-0.39 0.696-0.594 10.526-9.268 21.71-17.562 33.434-24.874 0.584-0.38 1.156-0.736 1.72-1.086 5.674-3.472 11.468-6.716 17.346-9.718 0.83-0.4 1.658-0.818 2.488-1.24 6-2.98 12.104-5.754 18.288-8.254 0.634-0.216 1.3-0.492 1.936-0.706 6.626-2.62 13.322-4.986 20.122-7.024 0.040-0.010 0.072-0.020 0.102-0.030 15.698-4.73 31.786-7.904 48.076-9.564 0.174-0.020 0.37-0.042 0.532-0.052 3.974-0.39 7.946-0.686 11.94-0.91 0.892-0.030 1.782-0.042 2.682-0.102 3.256-0.144 6.534-0.246 9.8-0.266 1.208-0.010 2.406 0.042 3.616 0.062 2.97 0.042 5.948 0.092 8.94 0.226 1.27 0.072 2.528 0.154 3.798 0.216 2.938 0.174 5.878 0.38 8.796 0.644 1.178 0.124 2.346 0.256 3.502 0.41 3.030 0.308 6.062 0.666 9.092 1.086 0.982 0.174 1.966 0.338 2.948 0.48 3.196 0.502 6.39 1.044 9.564 1.7 0.768 0.154 1.504 0.288 2.254 0.48 3.4 0.666 6.77 1.414 10.126 2.254 0.512 0.114 1.034 0.288 1.526 0.41 3.564 0.91 7.106 1.904 10.64 2.948 0.298 0.082 0.604 0.184 0.89 0.276 3.676 1.136 7.352 2.324 10.988 3.626 0.154 0.062 0.288 0.124 0.43 0.164 3.758 1.342 7.466 2.774 11.172 4.312 0.052 0.020 0.082 0.030 0.114 0.042 14.89 6.134 29.42 13.732 43.346 22.918l0.196 0.174c4.772 3.124 9.39 6.492 13.938 9.964 0.666 0.492 1.3 1.014 1.946 1.496 8.602 6.646 16.804 13.866 24.534 21.606 0.778 0.788 1.546 1.556 2.314 2.376 3.102 3.196 6.134 6.502 9.082 9.82 0.44 0.532 0.932 1.004 1.372 1.504l0.246 0.236c0.226 0.246 0.43 0.544 0.666 0.808 0.082 0.102 0.154 0.216 0.236 0.308 3.89 4.558 7.568 9.328 11.13 14.162zM705.424 431.544c-0.184-2.222-0.4-4.444-0.686-6.656-0.512-4.198-1.168-8.398-1.956-12.586-0.184-0.994-0.308-2.006-0.512-2.99-6.676-32.492-21.258-61.982-42.22-86.578l-38.748 18.044 0.216-0.462-0.462 0.206 18.482-38.328c-6.544-5.674-13.352-11.1-20.696-15.944-13.568-8.908-27.966-15.996-42.916-21.238-0.532-0.164-1.044-0.37-1.586-0.552-10.64-3.616-21.544-6.268-32.604-7.946-1.414-0.216-2.816-0.44-4.24-0.614-3.236-0.42-6.472-0.84-9.728-1.086l-14.798 40.48-14.172-40.52c-0.584 0.042-1.166 0.052-1.762 0.102-3.186 0.236-6.38 0.594-9.564 1.004-2.232 0.276-4.464 0.654-6.698 1.034-2.632 0.43-5.284 0.788-7.916 1.352-6.286 1.29-12.442 2.866-18.504 4.75-0.154 0.030-0.256 0.062-0.4 0.102-6.032 1.874-11.94 4.034-17.714 6.452-0.072 0.020-0.142 0.082-0.226 0.102-5.18 2.212-10.24 4.68-15.196 7.292-0.912 0.48-1.844 0.952-2.754 1.454-4.69 2.6-9.266 5.376-13.712 8.304-1.352 0.89-2.662 1.884-3.984 2.806-3.226 2.294-6.4 4.64-9.492 7.126-1.404 1.126-2.858 2.222-4.228 3.37-0.072 0.062-0.142 0.134-0.236 0.216l18.186 39.066-38.698-18.668c-0.38 0.44-0.778 0.86-1.146 1.3-2.334 2.714-4.608 5.52-6.798 8.388-0.452 0.562-0.86 1.168-1.29 1.75-2.284 3.072-4.526 6.164-6.636 9.38-18.268 27.658-28.846 58.818-31.438 90.922l40.132 14.664-0.452 0.174 0.472 0.144-40.202 14.080c0.614 8.622 1.576 17.264 3.338 25.888 0.634 3.022 1.392 5.99 2.15 8.99 0.348 1.372 0.676 2.724 1.056 4.086 0.932 3.358 1.946 6.666 3.040 9.942 0.48 1.444 1.034 2.836 1.556 4.27 1.916 5.284 4.024 10.434 6.38 15.502 0.87 1.884 1.75 3.758 2.692 5.612 1.362 2.702 2.734 5.356 4.218 8.008 2.088 3.676 4.27 7.29 6.596 10.824 1.454 2.232 3.022 4.414 4.588 6.564 1.65 2.294 3.338 4.576 5.088 6.81 1.504 1.894 2.95 3.81 4.536 5.642 0.020 0.042 0.060 0.082 0.082 0.114l39.034-18.144-0.194 0.44 0.44-0.206-18.586 38.616c0.758 0.644 1.454 1.342 2.222 1.976 1.834 1.546 3.676 3.040 5.572 4.516 2.744 2.15 5.582 4.168 8.448 6.194 1.424 0.982 2.806 2.038 4.27 2.99 5.234 3.452 10.598 6.626 16.076 9.512 0.348 0.196 0.686 0.38 1.034 0.584 10.854 5.642 22.108 10.23 33.658 13.732 0.572 0.184 1.156 0.38 1.75 0.552 5.592 1.638 11.254 3.012 16.956 4.148 0.696 0.122 1.414 0.246 2.12 0.358 5.234 0.962 10.526 1.72 15.822 2.252 0.716 0.072 1.414 0.164 2.098 0.226 0.544 0.050 1.056 0.020 1.576 0.060l14.756-40.366 14.152 40.406c1.546-0.102 3.124-0.102 4.69-0.266 1.434-0.132 2.846-0.266 4.28-0.44 5.448-0.626 10.906-1.444 16.332-2.528 0.236-0.032 0.462-0.062 0.696-0.102 5.642-1.156 11.14-2.652 16.578-4.27 1.312-0.388 2.62-0.778 3.912-1.198 5.232-1.67 10.394-3.502 15.41-5.612 0.962-0.4 1.884-0.85 2.826-1.27 4.25-1.844 8.418-3.84 12.504-5.98 1.332-0.706 2.674-1.372 3.994-2.098 4.558-2.52 9.010-5.212 13.332-8.080 1.25-0.87 2.478-1.75 3.726-2.632 3.524-2.488 6.972-5.048 10.322-7.762 1.096-0.86 2.222-1.72 3.288-2.6 0.246-0.226 0.48-0.48 0.736-0.706l-18.144-38.994 38.616 18.576c1.024-1.198 2.13-2.294 3.144-3.502 0.86-1.044 1.7-2.080 2.54-3.154 3.584-4.516 7.044-9.154 10.25-14.020 0.318-0.502 0.604-1.014 0.922-1.504 2.662-4.146 5.15-8.356 7.496-12.656 0.768-1.414 1.568-2.806 2.294-4.24 2.264-4.394 4.322-8.858 6.226-13.354 0.758-1.802 1.476-3.604 2.172-5.406 1.476-3.84 2.836-7.69 4.066-11.602 0.778-2.428 1.454-4.884 2.13-7.322 0.89-3.276 1.71-6.574 2.418-9.882 0.452-2.162 0.952-4.31 1.342-6.472 0.89-4.916 1.608-9.86 2.11-14.838 0.072-0.768 0.174-1.516 0.256-2.284 0.030-0.358 0-0.758 0.030-1.126l-40.448-14.746 0.48-0.174-0.48-0.174 40.48-14.14c-0.052-1.178-0.062-2.294-0.174-3.43zM526.9 430.284c0-8.23-6.672-14.9-14.9-14.9s-14.9 6.672-14.9 14.9c0 8.23 6.67 14.9 14.9 14.9s14.9-6.672 14.9-14.9zM507.35 413.85l-84.316 84.234 28.12 28.088 84.306-84.244zM599.040 482.62l-80.466-80.424-28.098 28.088 80.476 80.404z" />
<glyph unicode="&#xe611;" glyph-name="uniE611" data-tags="uniE611" d="M545.628 536.238c0 18.268 33.148 36.484 33.618 85.472 0.37 34.6-26.9 79.74-67.236 79.74-40.376 0-67.616-45.138-67.236-79.74 0.462-48.988 33.618-67.194 33.618-85.472 0-17.296-99.922-31.684-99.922-68.21v-23.060h267.070v23.060c0 36.526-99.912 50.912-99.912 68.21zM415.806 356.034h190.434v-161.476h-190.432v161.476zM685.732 419.348h-429.732l105.81-122.952 0.318-1.74h28.888v86.15h242.76v-86.15h26.922l107.306 124.692z" />
<glyph unicode="&#xe612;" glyph-name="uniE612" data-tags="uniE612" d="M356.056 443.956l-36.496 20.562-16.65-29.49 27.658-15.566c-25.724-49.234-4.618-112.23 48.272-142.038 4.506-2.54 9.124-4.64 13.774-6.534v-43.592h-56.188v-35.38h142.396v35.38h-56.188v35.626c41.042-5.202 81.592 11.9 102.748 46.756l27.648-15.566 16.62 29.5-213.596 120.34zM468.694 461.588l28.6-16.782 154.532 204.942-76.216 44.718zM391.24 479.672l28.18-9.984 102.042 207.738-75.1 26.654zM521.77 413.818l21.688-20.592 177.622 148.438-57.794 54.846z" />
<glyph unicode="&#xe613;" glyph-name="uniE613" data-tags="uniE613" d="M712.366 607.008l-1.076 11.222c0 3.758-1.23 7.066-3.666 9.942-2.448 3.154-5.55 5.038-9.298 5.6l-11.222 1.956h1.946c-67.124 15.688-120.27 35.942-159.438 60.702l-9.072 4.536c-2.61 2.028-5.478 3.030-8.654 3.030-3.022 0-5.54-1.004-7.558-3.030l-8.212-4.536h-1.084c-39.752-24.76-92.6-45.014-158.566-60.702h-0.86l-11.018-2.796c-3.738-1.156-6.84-2.958-9.288-5.396-2.016-2.458-3.032-5.55-3.032-9.298l-0.644-11.222c-14.98-172.842 46.162-308.378 183.408-406.58l8.428-5.622c2.592-1.874 5.396-2.816 8.428-2.816 3.186 0 6.042 0.942 8.642 2.816l9.072 5.622h0.86c136.252 97.486 196.884 233.032 181.904 406.57zM511.888 247.082c-112.476 84.562-163.758 199.772-153.806 345.65 62.782 14.99 114.052 34.294 153.806 57.908v-403.558z" />
<glyph unicode="&#xe614;" glyph-name="uniE614" data-tags="uniE614" d="M256 704v-352h256v-160l160 160h96v352h-512zM410.122 432.548c0-5.16-4.178-9.35-9.348-9.35h-59.474c-5.162 0-9.358 4.188-9.358 9.35v131.88c0 5.17 4.198 9.35 9.358 9.35h59.474c5.17 0 9.348-4.178 9.348-9.35v-131.88zM551.086 432.548c0-5.16-4.188-9.35-9.35-9.35h-59.484c-5.162 0-9.338 4.188-9.338 9.35v66.376c0 5.17 4.178 9.348 9.338 9.348h59.484c5.16 0 9.35-4.178 9.35-9.348v-66.376zM681.82 431.022c0-5.172-4.198-9.35-9.36-9.35h-59.464c-5.16 0-9.36 4.178-9.36 9.35v196.086c0 5.17 4.198 9.35 9.36 9.35h59.464c5.16 0 9.36-4.178 9.36-9.35v-196.086z" />
<glyph unicode="&#xe615;" glyph-name="uniE615" data-tags="uniE615" d="M256 704v-352h256v-160l160 160h96v352h-512zM410.122 432.548c0-5.16-4.178-9.35-9.348-9.35h-59.474c-5.162 0-9.358 4.188-9.358 9.35v131.88c0 5.17 4.198 9.35 9.358 9.35h59.474c5.17 0 9.348-4.178 9.348-9.35v-131.88zM551.086 432.548c0-5.16-4.188-9.35-9.35-9.35h-59.484c-5.162 0-9.338 4.188-9.338 9.35v66.376c0 5.17 4.178 9.348 9.338 9.348h59.484c5.16 0 9.35-4.178 9.35-9.348v-66.376zM681.82 431.022c0-5.172-4.198-9.35-9.36-9.35h-59.464c-5.16 0-9.36 4.178-9.36 9.35v196.086c0 5.17 4.198 9.35 9.36 9.35h59.464c5.16 0 9.36-4.178 9.36-9.35v-196.086z" />
<glyph unicode="&#xe616;" glyph-name="uniE616" data-tags="uniE616" d="M433.418 529.51c0-48.992-39.716-88.71-88.71-88.71s-88.71 39.716-88.71 88.71c0 48.992 39.716 88.708 88.71 88.708s88.71-39.716 88.71-88.708zM734.874 538.552c0-29.634-24.024-53.658-53.658-53.658s-53.658 24.024-53.658 53.658c0 29.634 24.024 53.658 53.658 53.658s53.658-24.024 53.658-53.658z" />
<glyph unicode="&#xe617;" glyph-name="uniE617" data-tags="uniE617" d="M766.27 393.38l0.092 0.010-0.206 0.634c-1.596 9.298-4.322 18.166-7.996 26.542l-45.178 149.822-0.114-0.010c-9.206 37.254-41.85 64.84-80.846 64.84-43.53 0-79.246-34.346-83.15-78.212l-0.358-0.020v-31.508h-73.032v31.508l-0.38 0.020c-3.902 43.868-39.64 78.212-83.158 78.212-38.984 0-71.63-27.586-80.834-64.84l-0.102 0.010-43.93-145.644c-7.014-14.92-11.080-31.62-11.080-49.326 0-62.484 49.142-113.12 109.742-113.12 58.93 0 106.884 47.924 109.496 108.012l0.246-0.030v90.336h73.032v-90.336l0.144 0.030c1.864-60.774 50.156-109.538 109.568-109.538 60.62 0 109.764 50.668 109.764 113.132 0.010 6.676-0.654 13.148-1.72 19.476zM365.742 305.244c-37.54 0-68.086 31.478-68.086 70.186s30.556 70.206 68.086 70.206c37.56 0 68.096-31.498 68.096-70.206 0.010-38.706-30.536-70.184-68.096-70.184zM658.236 303.74c-37.54 0-68.064 31.498-68.064 70.174 0 38.716 30.524 70.216 68.066 70.216 37.55 0 68.106-31.508 68.106-70.216 0-38.676-30.556-70.174-68.106-70.174z" />
<glyph unicode="&#xe618;" glyph-name="uniE618" data-tags="uniE618" d="M679.076 288.164l55.51-96.164h-204.032l27.382 47.422c43.51 2.958 86.14 19.374 121.14 48.742v0zM695.982 564.848l-22.784 22.784-267.438-267.448 22.784-22.784c74.812-56.73 181.904-50.964 250.154 17.284 68.26 68.26 74.024 175.34 17.284 250.164v0zM466.638 543.202l82.574-59.74-39.282-39.29-59.74 82.586c-9.606-3.442-20.766-1.322-28.466 6.38-10.64 10.65-10.64 27.894 0 38.534s27.894 10.64 38.534 0c7.69-7.69 9.82-18.852 6.38-28.466zM329.554 522.528l-34.62-8.306-1.946 8.714c-11.090 49.684 3.83 101.458 39.916 137.544 36.086 36.096 87.868 51.016 137.544 39.916l8.704-1.946-8.306-34.602-8.416 1.864c-37.724 8.336-76.964-3.010-104.356-30.404s-38.738-66.632-30.404-104.356l1.884-8.428zM351.284 537.016l1.874-8.826 34.58 8.284-1.7 8.316c-3.574 17.47 1.792 35.482 14.438 48.118 12.636 12.646 30.648 18.012 48.118 14.45l8.324-1.71 8.284 34.58-8.818 1.884c-29.368 6.206-59.802-2.744-81.080-24.024-21.288-21.268-30.238-51.702-24.024-81.070z" />
<glyph unicode="&#xe619;" glyph-name="uniE619" data-tags="uniE619" d="M606.464 351.621c12.001 12.001 18.606 27.986 18.606 44.913 0 16.937-6.615 32.932-18.606 44.923l20.951 20.91c17.562-17.572 27.269-40.95 27.269-65.833s-9.708-48.251-27.269-65.812l-20.951 20.9zM650.844 322.058c41.114 41.062 41.114 107.909 0 148.982l20.951 20.931c52.644-52.644 52.644-138.24 0-190.863l-20.951 20.951zM695.265 292.434c27.791 27.802 43.11 64.788 43.11 104.1s-15.319 76.308-43.11 104.11l20.951 20.92c33.362-33.393 51.784-77.824 51.784-125.030s-18.422-91.628-51.784-125.051l-20.951 20.951zM383.304 635.146c-71.014-4.219-127.304-63.14-127.304-135.209 0-42.916 19.958-81.172 51.118-105.994v-51.169l141.056-81.93v82.227h43.346c15.544 0 28.262 12.718 28.262 28.262v45.025l20.531 7.916c8.704 3.359 13.066 13.23 9.718 21.924l-23.265 60.314c-3.154 65.956-53.473 119.552-117.975 127.785z" />
<glyph unicode="&#xe61a;" glyph-name="uniE61A" data-tags="uniE61A" d="M390.881 560.046l57.815-44.114c-8.899-3.369-17.654-7.434-26.204-12.227-8.54-4.792-16.579-10.158-24.084-15.995l-7.526 72.335zM296.038 467.476l72.141-9.288c-6.031-7.363-11.581-15.268-16.579-23.685-4.997-8.428-9.277-17.080-12.861-25.887l-42.701 58.86zM326.615 310.262l-66.427 29.635 67.123 28.017c-1.526-9.38-2.396-18.995-2.519-28.805-0.113-9.8 0.512-19.425 1.823-28.846zM705.065 305.695c1.536 9.39 2.396 18.995 2.509 28.795 0.123 9.789-0.492 19.436-1.792 28.846l66.386-29.645zM739.441 462.111l-44.114-57.815c-3.359 8.888-7.434 17.644-12.237 26.194-4.792 8.55-10.138 16.579-15.985 24.084l72.335 7.537zM646.871 556.943l-9.288-72.12c-7.352 6.011-15.258 11.561-23.675 16.568-8.428 4.997-17.080 9.277-25.887 12.851l58.849 42.701zM519.291 592.794l28.006-67.113c-9.37 1.536-18.995 2.386-28.795 2.509-9.789 0.123-19.425-0.502-28.826-1.812l29.614 66.417zM689.828 337.705c0 95.887-77.752 173.64-173.65 173.64s-173.64-77.752-173.64-173.64c0-15.217 1.966-29.952 5.642-44.012h335.995c3.686 14.060 5.652 28.785 5.652 44.012z" />
<glyph unicode="&#xe61b;" glyph-name="uniE61B" data-tags="uniE61B" d="M584.991 490.465c2.99 0 5.97 0 8.97 0 5.642-0.655 11.295-1.311 16.937-1.966 50.156-5.939 98.212-20.808 146.473-34.673 3.574-1.024 8.571-4.741 8.991-7.752 1.516-11.11 4.495-23.388-5.437-32.287-7.383-6.615-9.605-14.51-10.025-23.706-0.174-3.953-1.004-7.895-1.567-11.827-5.786-39.762-26.173-66.796-66.406-77.015-24.678-6.267-43.643 2.068-53.371 25.549-4.055 9.769-5.96 20.47-8.428 30.843-2.202 9.247-8.438 12.462-16.077 6.738-3.604-2.703-6.431-7.506-7.772-11.919-2.376-7.813-3.092-16.108-4.936-24.105-8.94-38.799-30.126-66.406-70.912-74.639-25.385-5.11-43.643 2.642-49.869 29.286-2.13 9.185-3.912 18.514-5.048 27.873-0.737 5.99-2.611 9.892-8.643 12.145-2.816 1.055-6.676 4.639-6.636 7.025 0.133 7.803-5.069 9.81-10.496 12.268-7.926 3.604-15.636 7.711-23.695 10.947-15.913 6.38-31.898 12.605-48.026 18.381-31.734 11.336-60.59 5.765-86.897-15.155-11.602-9.226-18.616-7.854-26.122 3.901 0 1.987 0 3.994 0 5.98 3.604 3.645 6.82 7.793 10.844 10.875 33.812 25.928 72.182 32.522 113.039 24.105 36.25-7.475 72.079-16.957 108.196-25.119 5.478-1.239 11.643-1.034 17.213 0.010 20.746 3.901 41.216 9.738 62.095 12.401 26.89 3.451 52.756 8.827 76.769 22.129 10.383 5.755 21.893 9.462 32.881 14.121 1.72 0.748 3.41 1.597 5.581 2.611-1.106 0.952-1.536 1.577-2.13 1.802-25.17 9.933-50.063 20.654-75.612 29.481-22.528 7.793-44.749 4.803-65.219-7.967-6.113-3.809-11.807-8.294-17.91-12.145-6.963-4.393-15.002-3.348-18.862 2.048-4.833 6.738-3.717 14.029 4.26 19.159 11.244 7.229 22.477 15.114 34.806 19.855 13.691 5.274 28.641 7.311 43.039 10.742zM438.999 643.768c-2.98 0-5.97 0-8.97 0-5.642-0.655-11.295-1.311-16.937-1.976-50.156-5.939-98.202-20.808-146.473-34.662-3.574-1.024-8.571-4.751-8.98-7.762-1.516-11.1-4.506-23.388 5.448-32.276 7.373-6.615 9.595-14.51 10.004-23.706 0.174-3.953 1.014-7.895 1.567-11.827 5.806-39.762 26.184-66.796 66.417-77.015 24.668-6.257 43.633 2.089 53.371 25.569 4.045 9.769 5.949 20.47 8.428 30.833 2.202 9.257 8.438 12.462 16.067 6.748 3.604-2.703 6.441-7.516 7.782-11.93 2.376-7.813 3.092-16.108 4.936-24.095 8.95-38.799 30.126-66.406 70.912-74.639 25.375-5.12 43.633 2.632 49.859 29.286 2.14 9.185 3.912 18.504 5.059 27.863 0.737 5.99 2.601 9.892 8.643 12.145 2.816 1.055 6.687 4.639 6.636 7.025-0.133 7.813 5.069 9.81 10.486 12.278 7.926 3.594 15.636 7.7 23.706 10.947 15.903 6.38 31.887 12.616 48.026 18.371 31.734 11.336 60.59 5.775 86.897-15.165 11.602-9.226 18.616-7.844 26.112 3.901 0 1.997 0 3.983 0 5.99-3.604 3.645-6.81 7.793-10.844 10.875-33.812 25.938-72.182 32.532-113.039 24.105-36.25-7.475-72.079-16.947-108.196-25.108-5.468-1.239-11.643-1.034-17.213 0.010-20.736 3.901-41.216 9.738-62.095 12.411-26.88 3.441-52.746 8.817-76.78 22.129-10.383 5.755-21.883 9.462-32.87 14.121-1.731 0.737-3.41 1.587-5.571 2.601 1.096 0.952 1.536 1.567 2.12 1.802 25.17 9.943 50.053 20.664 75.622 29.491 22.518 7.782 44.749 4.803 65.219-7.967 6.103-3.809 11.807-8.305 17.9-12.155 6.973-4.383 15.002-3.338 18.862 2.048 4.833 6.748 3.727 14.029-4.26 19.169-11.244 7.219-22.467 15.104-34.796 19.845-13.701 5.243-28.652 7.281-43.049 10.721z" />
<glyph unicode="&#xe61c;" glyph-name="uniE61C" data-tags="uniE61C" d="M398.889 330.885l-26.204 50.176-14.889 7.782-59.904-129.485 92.099 15.421 43.356-82.78 55.337 120.207-33.26 21.012zM651.295 381.061l-26.204-50.176-56.545 2.335-33.249-21.012 55.316-120.207 43.366 82.78 92.129-15.421-59.955 129.485zM511.99 612.966c-51.057 0-92.6-41.564-92.6-92.58 0-51.087 41.544-92.641 92.6-92.641 51.067 0 92.621 41.554 92.621 92.641 0 51.016-41.554 92.58-92.621 92.58zM603.853 361.236l23.050 44.175 44.175 23.101-2.068 49.746 26.604 42.117-26.604 42.045 2.068 49.766-44.175 23.091-23.050 44.145-49.766-2.038-42.097 26.614-42.097-26.614-49.756 2.038-23.050-44.145-44.175-23.091 2.058-49.766-26.634-42.045 26.634-42.117-2.058-49.746 44.155-23.101 23.071-44.175 49.756 2.048 42.097-26.573 42.097 26.573 49.766-2.048zM389.386 520.387c0 67.584 54.999 122.573 122.604 122.573 67.615 0 122.614-54.999 122.614-122.573 0-67.635-54.999-122.644-122.614-122.644-67.604 0-122.604 55.009-122.604 122.644z" />
<glyph unicode="&#xe61d;" glyph-name="uniE61D" data-tags="uniE61D" d="M699.832 533.258h-17.971c-6.584 0-11.981-5.386-11.981-11.971v-82.586c0-40.049-31.539-107.827-149.76-107.827-118.211 0-149.76 67.779-149.76 107.827v82.586c0 6.584-5.386 11.971-11.981 11.971h-17.971c-6.595 0-11.981-5.386-11.981-11.971v-82.586c0-66.99 49.213-138.691 161.741-148.572v-79.063h-77.875c-6.584 0-11.981-5.386-11.981-11.981v-35.953c0-6.595 5.396-11.981 11.981-11.981h215.665c6.584 0 11.981 5.386 11.981 11.981v35.953c0 6.595-5.396 11.981-11.981 11.981h-77.875v79.063c112.538 9.882 161.741 81.582 161.741 148.572v82.586c-0.010 6.574-5.407 11.971-11.991 11.971zM520.12 390.779c70.277 0 89.856 28.867 89.856 47.923v94.556h-179.712v-94.556c0-19.067 19.569-47.923 89.856-47.923zM609.976 702.28c0 19.067-19.579 47.923-89.856 47.923-70.287 0-89.856-28.856-89.856-47.923v-127.089h179.722v127.089z" />
<glyph unicode="&#xe61e;" glyph-name="uniE61E" data-tags="uniE61E" d="M859.023 566.579l-128.42 0.604c-15.78 0.061-28.877-11.653-30.996-26.87-31.181 23.071-81.48 61.737-112.456 93-12.083 12.186-30.515 18.186-56.381 18.309-10.004 0.051-20.941-0.829-32.502-2.458l22.825 34.744c4.045 6.103 3.676 13.486-0.778 16.425l-21.197 13.906c-4.444 2.939-11.356 0.317-15.38-5.765l-47.944-72.888c-81.91-22.856-169.994-63.447-190.065-75.858-20.326-12.564-49.111-60.703-67.594-98.12-36.987-74.803-39.895-114.432-38.349-131.41 1.014-11.223 5.755-31.263 25.958-39.117 6.359-2.488 13.117-3.748 20.101-3.809 6.636 0 14.653 1.106 23.859 4.475l-10.138-15.432 37.366-24.576 3.379 5.14c11.069-14.93 28.488-25.764 51.896-32.297 18.094-5.038 39.404-7.557 65.167-7.68 0 0 0 0 0.020 0 5.571-0.031 11.356 0.061 17.654 0.256 22.641 0.737 45.507 2.038 67.635 3.297 21.35 1.208 43.407 2.468 65.055 3.195 72.161 2.458 126.74 20.879 190.403 49.92 1.219-16.026 14.602-28.744 30.925-28.805l128.42-0.604c17.203-0.082 31.242 13.814 31.324 31.027l1.219 260.086c0.092 17.152-13.834 31.201-31.007 31.304zM311.132 455.516c-9.605 1.812-18.883-4.403-20.838-13.998-2.97-14.428-18.309-44.861-40.96-72.868-23.183-28.621-46.838-45.711-63.314-45.629-2.591 0.020-4.966 0.461-7.25 1.352-2.406 0.963-3.164 7.168-3.328 9.062-1.997 21.842 11.325 64.87 34.775 112.323 23.214 46.93 46.469 78.674 54.344 83.528 12.82 7.916 60.242 30.075 112.466 49.418 9.544 3.502 18.852 6.799 27.873 9.851l-88.095-133.98c-3.574 0.563-5.612 0.922-5.673 0.942zM344.351 415.078c13.373-1.249 29.174-2.243 46.1-2.335 14.141-0.061 27.668 0.543 40.325 1.792l32.993-32.389c-8.325-11.131-19.61-26.214-22.723-30.331-1.147-0.389-4.383-1.229-11.182-1.198-16.486 0.092-40.632 4.997-60.027 8.94-17.142 3.502-30.669 6.236-39.895 6.277-0.502 0-0.952 0-1.434-0.010-5.366-0.133-11.438-0.809-17.879-2.007l33.72 51.261zM698.245 312.34c-2.243-0.932-4.403-1.772-5.704-2.284-2.959-1.167-4.198-1.649-5.181-2.099-61.42-28.293-113.080-46.295-180.808-48.568-22.036-0.748-44.308-2.007-65.864-3.226-21.914-1.239-44.575-2.529-66.785-3.277-5.816-0.184-11.172-0.256-16.312-0.236-0.020 0-0.020 0-0.020 0-48.855 0.236-80.282 10.291-90.839 29.041-2.253 4.045-3.195 7.363-3.369 10.199l13.384 20.337c14.090 10.138 36.321 17.398 52.767 17.818h0.307c5.714-0.031 19.528-2.816 32.932-5.55 22.036-4.495 47.022-9.574 67.021-9.656 6.963-0.031 28.16-0.133 39.117 14.387 0.543 0.676 32.952 44.022 32.952 44.022 5.366 7.168 4.598 17.224-1.792 23.491l-50.237 49.285c-3.871 3.809-9.339 5.663-14.735 4.956-13.558-1.69-28.498-2.529-44.39-2.437-8.274 0.031-16.251 0.317-23.798 0.748l104.131 158.351c23.665 5.437 43.878 8.274 59.628 8.212 20.541-0.113 28.344-4.895 31.14-7.711 41.718-42.148 113.715-94.822 137.359-111.78l-0.901-184.023zM122.051 102.564l113.101 106.701-59.996 39.393-53.105-146.094zM258.836 245.924c-5.069-7.475-14.725-9.779-21.596-5.14l-37.335 25.201c-6.871 4.659-8.335 14.459-3.297 21.944l283.423 419.86c5.048 7.475 14.715 9.789 21.576 5.151l37.325-25.201c6.881-4.628 8.335-14.459 3.297-21.944l-283.392-419.871z" />
<glyph unicode="&#xe61f;" glyph-name="uniE61F" data-tags="uniE61F" d="M760.781 650.004l-1.352 14.152c0 4.741-1.536 8.909-4.618 12.544-3.092 3.973-6.994 6.349-11.715 7.045l-14.162 2.468h2.447c-84.613 19.784-151.613 45.312-200.991 76.524l-11.428 5.724c-3.277 2.56-6.902 3.82-10.895 3.82-3.809 0-6.994-1.26-9.533-3.82l-10.353-5.724h-1.362c-50.115-31.212-116.736-56.74-199.895-76.524h-1.085l-13.875-3.533c-4.721-1.464-8.622-3.727-11.715-6.799-2.529-3.103-3.799-6.994-3.799-11.735l-0.819-14.152c-18.903-217.866 58.184-388.731 231.199-512.532l10.619-7.076c3.256-2.365 6.81-3.564 10.619-3.564 4.004 0 7.619 1.188 10.895 3.564l11.428 7.076h1.085c171.766 122.911 248.207 293.765 229.304 512.543zM508.211 195.195c0 0-214.026 128.758-193.894 435.732 0 0 102.185 19.251 193.894 72.991 91.699-53.74 193.894-72.991 193.894-72.991 20.142-306.975-193.894-435.732-193.894-435.732zM583.752 515.912h-151.081c-12.022 0-21.852-9.83-21.852-21.852v-100.065c0-12.022 9.83-21.852 21.852-21.852h151.081c12.001 0 21.852 9.83 21.852 21.852v100.065c0 12.022-9.851 21.852-21.852 21.852zM464.292 567.931c0 7.526 6.134 13.66 13.65 13.66h60.529c7.516 0 13.64-6.134 13.64-13.66v-52.019h27.32v52.019c0 22.6-18.381 40.95-40.96 40.95h-60.529c-22.589 0-40.96-18.35-40.96-40.95v-52.019h27.31v52.019z" />
<glyph unicode="&#xe620;" glyph-name="uniE620" data-tags="uniE620" d="M755.487 610.98v-480.522h-156.662v323.85zM546.836 402.33v-271.872h-156.662v306.678l95.713-95.724zM338.156 461.814v-331.356h-156.662v174.817zM181.484 435.016l170.281 170.271 134.113-134.124 235.254 235.254-28.908 28.928 120.422 32.266-32.276-120.433-24.873 24.658-269.619-269.619-134.113 134.124-170.281-170.271z" />
<glyph unicode="&#xe621;" glyph-name="uniE621" data-tags="uniE621" d="M785.92 394.24l92.16 20.48v71.68l-92.16 20.48c-2.56 10.24-5.12 23.040-7.68 33.28l69.12 64-35.84 61.44-89.6-28.16c-7.68 7.68-15.36 15.36-23.040 23.040l28.16 89.6-64 35.84-61.44-69.12c-10.24 2.56-20.48 7.68-33.28 7.68l-20.48 92.16h-71.68l-20.48-92.16c-10.24-2.56-23.040-5.12-33.28-7.68l-64 69.12-61.44-35.84 28.16-89.6c-7.68-7.68-15.36-15.36-23.040-23.040l-89.6 28.16-35.84-64 69.12-61.44c-2.56-10.24-7.68-20.48-7.68-33.28l-92.16-20.48v-71.68l92.16-20.48c2.56-10.24 5.12-23.040 7.68-33.28l-69.12-64 35.84-61.44 89.6 28.16c7.68-7.68 15.36-15.36 23.040-23.040l-28.16-89.6 64-35.84 61.44 69.12c10.24-2.56 20.48-7.68 33.28-7.68l20.48-92.16h71.68l20.48 92.16c10.24 2.56 23.040 5.12 33.28 7.68l64-69.12 61.44 35.84-28.16 89.6c7.68 7.68 15.36 15.36 23.040 23.040l89.6-28.16 35.84 64-69.12 61.44c2.56 10.24 5.12 23.040 7.68 33.28zM509.44 238.080c-117.76 0-215.040 97.28-215.040 215.040s97.28 215.040 215.040 215.040 215.040-97.28 215.040-215.040c0-120.32-97.28-215.040-215.040-215.040zM550.4 422.4c0 23.040 40.96 46.080 43.52 107.52 0 43.52-33.28 99.84-84.48 99.84s-84.48-56.32-84.48-99.84c0-61.44 43.52-84.48 43.52-107.52 0-17.92-81.92-28.16-112.64-56.32 25.6-43.52 69.12-74.24 117.76-84.48 2.56 0 5.12 0 7.68-2.56 2.56 0 5.12 0 7.68 0 7.68 0 12.8 0 20.48 0s12.8 0 20.48 0c2.56 0 5.12 0 7.68 0s5.12 0 7.68 2.56c51.2 10.24 92.16 43.52 117.76 84.48-28.16 25.6-112.64 38.4-112.64 56.32z" />
<glyph unicode="&#xe622;" glyph-name="uniE622" data-tags="uniE622" d="M844.8 530.944c0-140.288-150.528-252.928-336.896-252.928-39.936 0-78.848 5.12-114.688 15.36-37.888-66.56 27.648-162.816 27.648-162.816s-249.856 117.76-249.856 400.384c0 140.288 150.528 252.928 336.896 252.928s336.896-112.64 336.896-252.928zM465.92 506.368c4.096-14.336-1.024-30.72-13.312-38.912 7.168-12.288 16.384-23.552 27.648-33.792 10.24 10.24 26.624 13.312 40.96 5.12 13.312-7.168 20.48-22.528 18.432-36.864 14.336-4.096 28.672-5.12 44.032-4.096 0 14.336 10.24 27.648 24.576 32.768 14.336 4.096 30.72-1.024 38.912-13.312 12.288 7.168 23.552 16.384 33.792 27.648-10.24 10.24-13.312 26.624-5.12 40.96 7.168 13.312 22.528 20.48 36.864 18.432 4.096 14.336 5.12 28.672 4.096 44.032-14.336 0-27.648 10.24-32.768 24.576-4.096 14.336 1.024 30.72 13.312 38.912-7.168 12.288-16.384 23.552-27.648 33.792-10.24-10.24-26.624-13.312-40.96-5.12-13.312 7.168-20.48 22.528-18.432 36.864-14.336 4.096-28.672 5.12-44.032 4.096 0-14.336-10.24-27.648-24.576-32.768-14.336-4.096-30.72 1.024-38.912 13.312-12.288-7.168-23.552-16.384-33.792-27.648 10.24-10.24 13.312-26.624 5.12-40.96-7.168-13.312-22.528-20.48-36.864-18.432-4.096-14.336-5.12-28.672-4.096-44.032 15.36 0 28.672-9.216 32.768-24.576zM499.712 547.328c4.096 40.96 40.96 70.656 81.92 67.584 40.96-4.096 70.656-39.936 67.584-81.92-4.096-40.96-40.96-70.656-81.92-67.584-40.96 4.096-70.656 40.96-67.584 81.92zM287.744 450.048c5.12-8.192 4.096-17.408-2.048-24.576 6.144-6.144 13.312-11.264 21.504-15.36 4.096 7.168 13.312 11.264 22.528 9.216s15.36-9.216 16.384-18.432c9.216 0 17.408 2.048 25.6 4.096-2.048 8.192 1.024 17.408 9.216 22.528s17.408 4.096 24.576-2.048c6.144 6.144 11.264 13.312 15.36 21.504-7.168 4.096-11.264 13.312-9.216 22.528s9.216 15.36 18.432 16.384c0 9.216-2.048 17.408-4.096 25.6-8.192-2.048-17.408 1.024-22.528 9.216s-4.096 17.408 2.048 24.576c-6.144 6.144-13.312 11.264-21.504 15.36-4.096-7.168-13.312-11.264-22.528-9.216s-15.36 9.216-16.384 18.432c-9.216 0-17.408-2.048-25.6-4.096 2.048-8.192-1.024-17.408-9.216-22.528s-17.408-4.096-24.576 2.048c-6.144-6.144-11.264-13.312-15.36-21.504 7.168-4.096 11.264-13.312 9.216-22.528s-9.216-15.36-18.432-16.384c0-9.216 2.048-17.408 4.096-25.6 8.192 2.048 17.408-1.024 22.528-9.216zM301.056 478.72c-4.096 24.576 12.288 48.128 36.864 52.224s48.128-12.288 52.224-36.864c4.096-24.576-12.288-48.128-36.864-52.224s-48.128 12.288-52.224 36.864z" />
<glyph unicode="&#xe623;" glyph-name="uniE623" data-tags="uniE623" d="M237.568 251.392l109.568-102.4c0 0 33.792 26.624 65.536 49.152l-115.712 99.328c-44.032-30.72-59.392-46.080-59.392-46.080zM720.896 333.312c-27.648-24.576-51.2-41.984-84.992-48.128-53.248-9.216-106.496 4.096-121.856 13.312-25.6 17.408 1.024 6.144 77.824 11.264 76.8 4.096 62.464 45.056 62.464 45.056-17.408 2.048-37.888 4.096-117.76 6.144-29.696 1.024-86.016 6.144-112.64 1.024-30.72-6.144-58.368-32.768-101.376-61.44l104.448-90.112c15.36 10.24 28.672 18.432 33.792 18.432 31.744 0 114.688-8.192 173.056 0 117.76 56.32 158.72 125.952 158.72 125.952s-29.696 27.648-71.68-21.504zM599.040 663.040l25.6 25.6c4.096 4.096 4.096 10.24 0 14.336s-10.24 4.096-14.336 0l-25.6-25.6c5.12-4.096 9.216-8.192 14.336-14.336zM516.096 704c0 0 0 0 0 0 4.096 0 7.168 0 10.24-1.024v34.816c0 6.144-4.096 10.24-10.24 10.24s-10.24-4.096-10.24-10.24v-33.792c3.072 0 6.144 0 10.24 0 0 0 0 0 0 0zM433.152 663.040c4.096 5.12 9.216 10.24 14.336 14.336l-25.6 26.624c-4.096 4.096-10.24 4.096-14.336 0s-4.096-10.24 0-14.336l25.6-26.624zM407.552 591.36c0 5.12 0 10.24 1.024 14.336h-36.864c-6.144 0-10.24-4.096-10.24-10.24s4.096-10.24 10.24-10.24h35.84c1.024 2.048 0 4.096 0 6.144zM407.552 501.248c-4.096-4.096-4.096-10.24 0-14.336s10.24-4.096 14.336 0l18.432 18.432c-4.096 5.12-8.192 10.24-12.288 16.384l-20.48-20.48zM520.192 399.872h-26.624c0 0 0-1.024 0-1.024 0-5.12 8.192-10.24 16.384-10.24h12.288c7.168 0 16.384 4.096 16.384 10.24 0 0 0 1.024 0 1.024h-18.432zM541.696 424.448h-52.224c-5.12 0-10.24-4.096-10.24-10.24 0-5.12 4.096-10.24 10.24-10.24h52.224c5.12 0 10.24 4.096 10.24 10.24s-5.12 10.24-10.24 10.24zM541.696 449.024h-52.224c-5.12 0-10.24-4.096-10.24-10.24 0-5.12 4.096-10.24 10.24-10.24h52.224c5.12 0 10.24 4.096 10.24 10.24s-5.12 10.24-10.24 10.24zM609.28 591.36c0 21.504-7.168 40.96-19.456 56.32-10.24 13.312-24.576 24.576-40.96 30.72v0l-6.144 2.048c-5.12 2.048-11.264 3.072-16.384 3.072h-1.024c-3.072 0-6.144 0-9.216 0v0 0 0c-3.072 0-6.144 0-9.216 0v0h-1.024c-6.144-1.024-11.264-2.048-16.384-3.072l-7.168-2.048c-16.384-6.144-30.72-17.408-40.96-30.72-12.288-15.36-19.456-34.816-19.456-56.32 0-15.36 3.072-27.648 7.168-37.888 6.144-15.36 15.36-25.6 23.552-33.792 4.096-4.096 7.168-7.168 9.216-10.24s3.072-5.12 4.096-7.168c2.048-8.192 2.048-19.456 2.048-22.528v-1.024c0-12.288 10.24-22.528 22.528-22.528h52.224c12.288 0 22.528 10.24 22.528 22.528v0 0 0 0c0 3.072 0 13.312 2.048 22.528 0 1.024 1.024 3.072 2.048 4.096 2.048 3.072 5.12 6.144 9.216 11.264 6.144 6.144 14.336 15.36 20.48 26.624 6.144 12.288 10.24 27.648 10.24 48.128zM510.976 644.608c-12.288 0-19.456-4.096-25.6-8.192s-10.24-10.24-13.312-16.384c-6.144-12.288-7.168-26.624-6.144-27.648v0c0-6.144-5.12-10.24-10.24-10.24-6.144 0-10.24 5.12-10.24 10.24 0 0 0 6.144 1.024 13.312 1.024 8.192 4.096 17.408 10.24 27.648 4.096 7.168 9.216 13.312 16.384 18.432 9.216 7.168 22.528 12.288 38.912 12.288 6.144 0 10.24-4.096 11.264-10.24-2.048-4.096-7.168-9.216-12.288-9.216zM604.16 521.728c-4.096-6.144-8.192-11.264-12.288-16.384l18.432-18.432c4.096-4.096 10.24-4.096 14.336 0s4.096 10.24 0 14.336l-20.48 20.48zM659.456 605.696h-36.864c1.024-5.12 1.024-9.216 1.024-14.336 0-2.048 0-4.096 0-6.144h35.84c6.144 0 10.24 4.096 10.24 10.24 0 5.12-5.12 10.24-10.24 10.24z" />
</font>
</defs>
</svg>
